<svg id="Group_89" data-name="Group 89" xmlns="http://www.w3.org/2000/svg" width="957" height="1097.106" viewBox="0 0 957 1097.106">
  <rect id="Rectangle_21" data-name="Rectangle 21" width="957" height="1097" fill="#ffc135"/>
  <g id="Group_80" data-name="Group 80">
    <path id="Path_619" data-name="Path 619" d="M934.175,0C912.211,623.2,378.107,1246.973,0,910.114v186.993H957V0Z" fill="#ffd142"/>
  </g>
  <g id="Group_88" data-name="Group 88" transform="translate(3.809 27.468)">
    <g id="Group_81" data-name="Group 81">
      <path id="Path_620" data-name="Path 620" d="M23.755,143.844l-5.61-5.176-.85.949,5.609,5.176Z" transform="translate(-3.809 75.1)" fill="#ffe1fb"/>
      <path id="Path_621" data-name="Path 621" d="M163,272.325l-11.6-10.707-.85.949,11.6,10.707Z" transform="translate(-3.809 190.746)" fill="#ffe1fb"/>
      <path id="Path_622" data-name="Path 622" d="M116.582,229.5l-11.6-10.706-.85.949,11.6,10.706Z" transform="translate(-3.809 150.834)" fill="#ffe1fb"/>
      <path id="Path_623" data-name="Path 623" d="M139.788,250.91l-11.6-10.706-.85.949,11.6,10.706Z" transform="translate(-3.809 170.79)" fill="#ffe1fb"/>
      <path id="Path_624" data-name="Path 624" d="M173.748,283.98l11.6,10.707.85-.949-11.6-10.707Z" transform="translate(-3.809 210.702)" fill="#ffe1fb"/>
      <path id="Path_625" data-name="Path 625" d="M196.955,305.393l11.6,10.707.85-.949-11.6-10.707Z" transform="translate(-12.251 230.658)" fill="#ffe1fb"/>
      <path id="Path_626" data-name="Path 626" d="M57.715,176.913l11.6,10.707.85-.949-11.6-10.707Z" transform="translate(-3.809 110.922)" fill="#ffe1fb"/>
      <path id="Path_627" data-name="Path 627" d="M93.375,208.084l-11.6-10.707-.85.949,11.6,10.707Z" transform="translate(-3.809 130.878)" fill="#ffe1fb"/>
      <path id="Path_628" data-name="Path 628" d="M34.508,155.5l11.6,10.707.85-.949-11.6-10.707Z" transform="translate(-3.809 90.966)" fill="#ffe1fb"/>
      <path id="Path_629" data-name="Path 629" d="M226.233,330.676l-5.221-4.818-.85.949,6,5.535,6.457-4.975-.764-1.022Z" transform="translate(-13.265 247.944)" fill="#ffe1fb"/>
      <path id="Path_630" data-name="Path 630" d="M243.629,317.275l.764,1.022,11.775-9.071L255.4,308.2Z" transform="translate(-14.292 233.397)" fill="#ffe1fb"/>
      <path id="Path_631" data-name="Path 631" d="M314.284,262.849l.764,1.022,11.776-9.071-.764-1.022Z" transform="translate(-17.381 182.823)" fill="#ffe1fb"/>
      <path id="Path_632" data-name="Path 632" d="M290.732,280.99l.764,1.022,11.775-9.07-.764-1.022Z" transform="translate(-16.351 199.682)" fill="#ffe1fb"/>
      <path id="Path_633" data-name="Path 633" d="M397.478,200.374l-.765-1.022-11.776,9.07.765,1.022Z" transform="translate(-20.469 132.25)" fill="#ffe1fb"/>
      <path id="Path_634" data-name="Path 634" d="M267.181,299.133l.764,1.022,11.776-9.071-.764-1.022Z" transform="translate(-15.322 216.54)" fill="#ffe1fb"/>
      <path id="Path_635" data-name="Path 635" d="M350.375,236.658l-.764-1.022-11.775,9.071.764,1.022Z" transform="translate(-18.41 165.966)" fill="#ffe1fb"/>
      <path id="Path_636" data-name="Path 636" d="M420.264,181.209l-11.775,9.071.765,1.022,11.775-9.071Z" transform="translate(-21.499 115.392)" fill="#ffe1fb"/>
      <path id="Path_637" data-name="Path 637" d="M361.387,226.564l.764,1.022,11.775-9.07-.764-1.022Z" transform="translate(-19.44 149.108)" fill="#ffe1fb"/>
      <path id="Path_638" data-name="Path 638" d="M432.041,172.138l.765,1.022,5.772-4.447,6.876,2.327.4-1.217-7.507-2.54Z" transform="translate(-22.553 101.434)" fill="#ffe1fb"/>
      <path id="Path_639" data-name="Path 639" d="M475.509,179.854l-14.827-5.016-.4,1.217,14.827,5.016Z" transform="translate(-23.818 108.49)" fill="#ffe1fb"/>
      <path id="Path_640" data-name="Path 640" d="M489.936,186.089l14.827,5.016.4-1.217-14.827-5.016Z" transform="translate(-25.118 117.747)" fill="#ffe1fb"/>
      <path id="Path_641" data-name="Path 641" d="M564.471,209.953l-14.827-5.016-.4,1.217,14.827,5.016Z" transform="translate(-27.717 136.258)" fill="#ffe1fb"/>
      <path id="Path_642" data-name="Path 642" d="M519.59,196.121l14.827,5.017.4-1.217L519.99,194.9Z" transform="translate(-26.417 127.002)" fill="#ffe1fb"/>
      <path id="Path_643" data-name="Path 643" d="M586.115,217.277,579.3,214.97l-.4,1.217,7.568,2.56,5.575-5.79-.9-.9Z" transform="translate(-28.964 142.974)" fill="#ffe1fb"/>
      <path id="Path_644" data-name="Path 644" d="M672.49,127.568l-10.169,10.561.9.9,10.169-10.561Z" transform="translate(-32.552 65.785)" fill="#ffe1fb"/>
      <path id="Path_645" data-name="Path 645" d="M733.5,64.2,723.335,74.76l.9.9L734.407,65.1Z" transform="translate(-35.216 -27.468)" fill="#ffe1fb"/>
      <path id="Path_646" data-name="Path 646" d="M753.842,43.076,743.673,53.637l.9.9,10.169-10.561Z" transform="translate(-36.103 -27.468)" fill="#ffe1fb"/>
      <path id="Path_647" data-name="Path 647" d="M703,95.883l.9.9,10.169-10.561-.9-.9Z" transform="translate(-34.328 -27.468)" fill="#ffe1fb"/>
      <path id="Path_648" data-name="Path 648" d="M764.914,33.411l5.722-5.943h-1.767l-4.858,5.046Z" transform="translate(-36.842 -27.468)" fill="#ffe1fb"/>
      <path id="Path_649" data-name="Path 649" d="M641.983,159.253l.9.9,10.169-10.562-.9-.9Z" transform="translate(-31.665 85.463)" fill="#ffe1fb"/>
      <path id="Path_650" data-name="Path 650" d="M682.658,117.007l.9.9,10.169-10.562-.9-.9Z" transform="translate(-33.44 -27.468)" fill="#ffe1fb"/>
      <path id="Path_651" data-name="Path 651" d="M621.644,180.375l.9.9,10.169-10.561-.9-.9Z" transform="translate(-30.777 105.141)" fill="#ffe1fb"/>
      <path id="Path_652" data-name="Path 652" d="M612.378,191.834l-.9-.9L601.306,201.5l.9.9Z" transform="translate(-29.889 124.819)" fill="#ffe1fb"/>
      <path id="Path_653" data-name="Path 653" d="M982.839,78.7,970.7,69.491l-.758,1.027,12.135,9.209Z" transform="translate(-46.809 -27.468)" fill="#ffe1fb"/>
      <path id="Path_654" data-name="Path 654" d="M921.409,33.679l12.135,9.209.758-1.027-12.135-9.209Z" transform="translate(-46.809 -27.468)" fill="#ffe1fb"/>
      <path id="Path_655" data-name="Path 655" d="M994.216,88.937l5.783,4.39v-1.6l-5.026-3.815Z" transform="translate(-46.809 -27.468)" fill="#ffe1fb"/>
      <path id="Path_656" data-name="Path 656" d="M945.678,52.1l12.135,9.209.758-1.027-12.135-9.209Z" transform="translate(-46.809 -27.468)" fill="#ffe1fb"/>
      <path id="Path_657" data-name="Path 657" d="M959.406,423.411l4.951,14.04,1.19-.433-4.95-14.04Z" transform="translate(-46.809 343.082)" fill="#ffe1fb"/>
      <path id="Path_658" data-name="Path 658" d="M979.208,479.572l4.951,14.04,1.19-.433-4.951-14.04Z" transform="translate(-46.809 469.638)" fill="#ffe1fb"/>
      <path id="Path_659" data-name="Path 659" d="M969.307,451.491l4.951,14.041,1.19-.433-4.951-14.04Z" transform="translate(-46.809 369.39)" fill="#ffe1fb"/>
      <path id="Path_660" data-name="Path 660" d="M1000,538.536v-3.163l-.988.36Z" transform="translate(-46.809 469.638)" fill="#ffe1fb"/>
      <path id="Path_661" data-name="Path 661" d="M989.11,507.651l4.951,14.041,1.19-.433L990.3,507.218Z" transform="translate(-46.809 469.638)" fill="#ffe1fb"/>
      <path id="Path_662" data-name="Path 662" d="M949.5,395.33l4.951,14.041,1.19-.433L950.694,394.9Z" transform="translate(-46.809 316.773)" fill="#ffe1fb"/>
      <path id="Path_663" data-name="Path 663" d="M935,374.267l.175,1.27,7-1,2.381,6.754,1.19-.433-2.729-7.736Z" transform="translate(-46.809 292.57)" fill="#ffe1fb"/>
      <path id="Path_664" data-name="Path 664" d="M634.527,417.254l.175,1.27,15.024-2.149-.175-1.27Z" transform="translate(-31.455 328.294)" fill="#ffe1fb"/>
      <path id="Path_665" data-name="Path 665" d="M694.621,408.657l.176,1.27,15.023-2.151-.177-1.27Z" transform="translate(-34.089 320.404)" fill="#ffe1fb"/>
      <path id="Path_666" data-name="Path 666" d="M724.669,404.357l.175,1.27,15.023-2.149-.175-1.27Z" transform="translate(-35.406 316.458)" fill="#ffe1fb"/>
      <path id="Path_667" data-name="Path 667" d="M664.575,412.955l.175,1.27,15.023-2.149-.175-1.27Z" transform="translate(-32.772 324.349)" fill="#ffe1fb"/>
      <path id="Path_668" data-name="Path 668" d="M754.717,400.059l.175,1.27,15.023-2.149-.175-1.27Z" transform="translate(-36.723 312.513)" fill="#ffe1fb"/>
      <path id="Path_669" data-name="Path 669" d="M784.763,395.761l.175,1.27,15.024-2.149-.175-1.27Z" transform="translate(-38.04 308.568)" fill="#ffe1fb"/>
      <path id="Path_670" data-name="Path 670" d="M874.9,382.864l.175,1.27,15.023-2.149-.175-1.27Z" transform="translate(-46.809 296.732)" fill="#ffe1fb"/>
      <path id="Path_671" data-name="Path 671" d="M904.952,378.566l.175,1.27,15.023-2.149-.175-1.27Z" transform="translate(-46.809 292.787)" fill="#ffe1fb"/>
      <path id="Path_672" data-name="Path 672" d="M814.811,391.462l.175,1.27,15.023-2.149-.175-1.27Z" transform="translate(-46.809 304.623)" fill="#ffe1fb"/>
      <path id="Path_673" data-name="Path 673" d="M844.857,387.164l.176,1.27,15.023-2.151-.177-1.27Z" transform="translate(-46.809 300.678)" fill="#ffe1fb"/>
      <path id="Path_674" data-name="Path 674" d="M611.654,420.525l-3.3,7.318,1.15.534,3.007-6.679,7.164-1.025-.175-1.27Z" transform="translate(-30.204 335.966)" fill="#ffe1fb"/>
      <path id="Path_675" data-name="Path 675" d="M558.159,539.32l1.15.534,6.276-13.935-1.15-.534Z" transform="translate(-27.916 469.638)" fill="#ffe1fb"/>
      <path id="Path_676" data-name="Path 676" d="M583.259,483.582l1.15.534,6.276-13.935-1.15-.533Z" transform="translate(-29.008 469.638)" fill="#ffe1fb"/>
      <path id="Path_677" data-name="Path 677" d="M570.71,511.45l1.15.534,6.275-13.935-1.15-.534Z" transform="translate(-28.462 469.638)" fill="#ffe1fb"/>
      <path id="Path_678" data-name="Path 678" d="M545.61,567.189l1.15.533,6.275-13.935-1.15-.534Z" transform="translate(-27.371 469.638)" fill="#ffe1fb"/>
      <path id="Path_679" data-name="Path 679" d="M595.809,455.713l1.15.534,6.274-13.935-1.15-.533Z" transform="translate(-29.554 360.692)" fill="#ffe1fb"/>
      <path id="Path_680" data-name="Path 680" d="M460.3,430.763l2.311,14.608,1.249-.2-2.311-14.608Z" transform="translate(-23.584 350.426)" fill="#ffe1fb"/>
      <path id="Path_681" data-name="Path 681" d="M474.171,518.414l2.311,14.61,1.249-.2-2.311-14.61Z" transform="translate(-24.184 469.638)" fill="#ffe1fb"/>
      <path id="Path_682" data-name="Path 682" d="M464.927,459.98l2.311,14.609,1.249-.2-2.311-14.609Z" transform="translate(-23.784 377.817)" fill="#ffe1fb"/>
      <path id="Path_683" data-name="Path 683" d="M469.549,489.2l2.311,14.609,1.249-.2L470.8,488.994Z" transform="translate(-23.984 469.638)" fill="#ffe1fb"/>
      <path id="Path_684" data-name="Path 684" d="M478.793,547.632l2.311,14.609,1.249-.2-2.311-14.609Z" transform="translate(-24.384 469.638)" fill="#ffe1fb"/>
      <path id="Path_685" data-name="Path 685" d="M449.864,407.512l-.049,1.283,7.058.279,1.119,7.08,1.249-.2-1.285-8.117Z" transform="translate(-23.244 324.722)" fill="#ffe1fb"/>
      <path id="Path_686" data-name="Path 686" d="M417.211,407.5l16.3.649.049-1.283-16.3-.649Z" transform="translate(-21.951 319.183)" fill="#ffe1fb"/>
      <path id="Path_687" data-name="Path 687" d="M384.61,406.2l16.3.649.049-1.283-16.3-.649Z" transform="translate(-20.52 317.994)" fill="#ffe1fb"/>
      <path id="Path_688" data-name="Path 688" d="M358.736,412.051l1.241.238,1.3-7.019,7.03.279.049-1.283-8.12-.322Z" transform="translate(-19.278 321.222)" fill="#ffe1fb"/>
      <path id="Path_689" data-name="Path 689" d="M331.81,557.4l-2.8,15.136h1.285l2.76-14.9Z" transform="translate(-17.903 469.638)" fill="#ffe1fb"/>
      <path id="Path_690" data-name="Path 690" d="M352.753,444.349l1.241.238,2.992-16.149-1.241-.238Z" transform="translate(-18.935 349.334)" fill="#ffe1fb"/>
      <path id="Path_691" data-name="Path 691" d="M334.8,541.247l1.241.238,2.992-16.15-1.241-.238Z" transform="translate(-18.157 469.638)" fill="#ffe1fb"/>
      <path id="Path_692" data-name="Path 692" d="M346.769,476.648l1.241.238L351,460.737l-1.241-.238Z" transform="translate(-18.675 379.704)" fill="#ffe1fb"/>
      <path id="Path_693" data-name="Path 693" d="M340.785,508.948l1.241.238,2.992-16.15-1.241-.238Z" transform="translate(-18.416 469.638)" fill="#ffe1fb"/>
      <path id="Path_694" data-name="Path 694" d="M187.061,525.781l12.564,9.967.779-1.009-12.564-9.967Z" transform="translate(-3.809 469.638)" fill="#ffe1fb"/>
      <path id="Path_695" data-name="Path 695" d="M161.933,505.849l12.564,9.966.779-1.01-12.564-9.966Z" transform="translate(-3.809 469.638)" fill="#ffe1fb"/>
      <path id="Path_696" data-name="Path 696" d="M212.189,545.713l12.564,9.966.779-1.009L212.967,544.7Z" transform="translate(-12.925 469.638)" fill="#ffe1fb"/>
      <path id="Path_697" data-name="Path 697" d="M136.8,485.917l12.564,9.966.779-1.009-12.564-9.966Z" transform="translate(-3.809 469.638)" fill="#ffe1fb"/>
      <path id="Path_698" data-name="Path 698" d="M237.316,565.646,246,572.532h2.051l-9.953-7.9Z" transform="translate(-13.998 469.638)" fill="#ffe1fb"/>
      <path id="Path_699" data-name="Path 699" d="M111.678,465.985l12.564,9.966.779-1.009-12.564-9.966Z" transform="translate(-3.809 469.638)" fill="#ffe1fb"/>
      <path id="Path_700" data-name="Path 700" d="M88.507,456.574l1.016.764,4.129-5.652,5.463,4.332.779-1.01-6.484-5.144Z" transform="translate(-3.809 363.119)" fill="#ffe1fb"/>
      <path id="Path_701" data-name="Path 701" d="M52.281,506.17l1.015.764,9.056-12.4-1.015-.764Z" transform="translate(-3.809 469.638)" fill="#ffe1fb"/>
      <path id="Path_702" data-name="Path 702" d="M70.394,481.373l1.016.764,9.056-12.4-1.015-.764Z" transform="translate(-3.809 469.638)" fill="#ffe1fb"/>
      <path id="Path_703" data-name="Path 703" d="M34.168,530.968l1.015.764,9.056-12.4-1.015-.764Z" transform="translate(-3.809 469.638)" fill="#ffe1fb"/>
      <path id="Path_704" data-name="Path 704" d="M7,568.165l-3.19,4.367H5.382l2.632-3.6Z" transform="translate(-3.809 469.638)" fill="#ffe1fb"/>
      <path id="Path_705" data-name="Path 705" d="M16.055,555.766l1.016.764,9.056-12.4-1.015-.764Z" transform="translate(-3.809 469.638)" fill="#ffe1fb"/>
    </g>
    <g id="Group_82" data-name="Group 82" transform="translate(1.641 195.657)">
      <path id="Path_706" data-name="Path 706" d="M5.45,139.617A11.935,11.935,0,0,0,17.3,151.64a12.024,12.024,0,0,0,0-24.046A11.935,11.935,0,0,0,5.45,139.617Z" transform="translate(-5.45 -127.594)" fill="#ffe1fb"/>
      <path id="Path_707" data-name="Path 707" d="M11.287,139.617a6.009,6.009,0,1,0,6.009-6.1A6.055,6.055,0,0,0,11.287,139.617Z" transform="translate(-5.45 -127.594)" fill="#ffc135"/>
    </g>
    <g id="Group_83" data-name="Group 83" transform="translate(201.268 569.007)">
      <path id="Path_708" data-name="Path 708" d="M214.387,330.676a11.847,11.847,0,1,0,11.846-12.023A11.935,11.935,0,0,0,214.387,330.676Z" transform="translate(-214.387 -318.653)" fill="#ffe1fb"/>
      <path id="Path_709" data-name="Path 709" d="M220.224,330.676a6.009,6.009,0,1,0,6.009-6.1A6.055,6.055,0,0,0,220.224,330.676Z" transform="translate(-214.387 -318.653)" fill="#ffc135"/>
    </g>
    <g id="Group_84" data-name="Group 84" transform="translate(79.952 803.534)">
      <ellipse id="Ellipse_3" data-name="Ellipse 3" cx="11.846" cy="12.023" rx="11.846" ry="12.023" fill="#ffe1fb"/>
      <ellipse id="Ellipse_4" data-name="Ellipse 4" cx="6.009" cy="6.099" rx="6.009" ry="6.099" transform="translate(5.837 5.925)" fill="#ffc135"/>
    </g>
    <g id="Group_85" data-name="Group 85" transform="translate(404.224 252.512)">
      <path id="Path_710" data-name="Path 710" d="M426.733,168.712a11.847,11.847,0,1,0,11.845-12.023A11.935,11.935,0,0,0,426.733,168.712Z" transform="translate(-426.733 -156.689)" fill="#ffe1fb"/>
      <path id="Path_711" data-name="Path 711" d="M432.57,168.712a6.009,6.009,0,1,0,6.008-6.1A6.054,6.054,0,0,0,432.57,168.712Z" transform="translate(-426.733 -156.689)" fill="#ffc135"/>
    </g>
    <g id="Group_86" data-name="Group 86" transform="translate(421.71 722.204)">
      <path id="Path_712" data-name="Path 712" d="M445.027,409.074a11.847,11.847,0,1,0,11.846-12.023A11.934,11.934,0,0,0,445.027,409.074Z" transform="translate(-445.027 -397.051)" fill="#ffe1fb"/>
      <path id="Path_713" data-name="Path 713" d="M450.864,409.074a6.009,6.009,0,1,0,6.009-6.1A6.055,6.055,0,0,0,450.864,409.074Z" transform="translate(-445.027 -397.051)" fill="#ffc135"/>
    </g>
    <g id="Group_87" data-name="Group 87" transform="translate(883.518 654.714)">
      <path id="Path_714" data-name="Path 714" d="M930.327,374.537a11.847,11.847,0,1,0,11.846-12.024A11.935,11.935,0,0,0,930.327,374.537Z" transform="translate(-930.327 -362.513)" fill="#ffe1fb"/>
      <path id="Path_715" data-name="Path 715" d="M936.164,374.537a6.009,6.009,0,1,0,6.009-6.1A6.054,6.054,0,0,0,936.164,374.537Z" transform="translate(-930.327 -362.513)" fill="#ffc135"/>
    </g>
  </g>
</svg>
