<svg xmlns="http://www.w3.org/2000/svg" width="899.161" height="781.784" viewBox="0 0 899.161 781.784">
  <g id="Group_79" data-name="Group 79" transform="translate(-103.075 -66.846)">
    <path id="Path_389" data-name="Path 389" d="M694.032,349.27H346.681L276.033,663.715H623.385Z" transform="translate(113.243 184.914)" fill="#3b2d51"/>
    <g id="Group_65" data-name="Group 65" transform="translate(403.682 66.846)">
      <g id="Group_57" data-name="Group 57" transform="translate(14.353 133)">
        <path id="Path_390" data-name="Path 390" d="M359.038,149.841h-51.8L293.413,379.527h58.63Z" transform="translate(-293.413 -145.506)" fill="#732c84"/>
        <path id="Path_391" data-name="Path 391" d="M363.108,149.841H310.481L296.819,379.527h59.563Z" transform="translate(-291.182 -145.506)" fill="#ab56bf"/>
        <path id="Path_392" data-name="Path 392" d="M371.122,153.272H318.5l-21.78,223.286,55.628.284Z" transform="translate(-291.25 -143.26)" fill="#732c84"/>
        <path id="Path_393" data-name="Path 393" d="M356.147,151.679c-12.67,4.981-25.986,5.469-39.82,2.368L300.842,375.3c16.968-3.074,33.25-3.114,45.03.491Z" transform="translate(-288.548 -144.303)" fill="#ddcba6"/>
        <path id="Path_394" data-name="Path 394" d="M476.281,147.266H338.647L320.753,381.213H461.23Z" transform="translate(-275.512 -147.192)" fill="#732c84"/>
        <path id="Path_395" data-name="Path 395" d="M480.056,147.266H342.423l-17.9,233.947H465.006Z" transform="translate(-273.04 -147.192)" fill="#bf63d6"/>
        <path id="Path_396" data-name="Path 396" d="M330.652,154.978a77.974,77.974,0,0,1-14.323-1.868L300.842,374.359a138.037,138.037,0,0,1,20.132-2.176Z" transform="translate(-288.548 -143.366)" fill="#efe3ca"/>
        <g id="Group_55" data-name="Group 55" transform="translate(58.464 9.106)" opacity="0.45" style="mix-blend-mode: overlay;isolation: isolate">
          <path id="Path_397" data-name="Path 397" d="M456.7,368.608H328.744l16.182-215.884H470.3Zm-125.553-2.224H454.608l13.327-211.438H346.988Z" transform="translate(-328.744 -152.724)" fill="#fff"/>
        </g>
        <g id="Group_56" data-name="Group 56" transform="translate(66.005 17.029)" opacity="0.45" style="mix-blend-mode: overlay;isolation: isolate">
          <path id="Path_398" data-name="Path 398" d="M447.622,357.549H333.3l14.456-200.037H459.781Zm-112.18-2.06H445.757l11.907-195.916H349.6Z" transform="translate(-333.301 -157.512)" fill="#fff"/>
        </g>
        <path id="Path_399" data-name="Path 399" d="M417.708,147.221l-32.544,91.957-33.173-17.845L333.7,258.289l-9.082,122.8H461.227l18.732-84.578L449.307,147.221Z" transform="translate(-272.983 -147.221)" fill="#c94343" opacity="0.6" style="mix-blend-mode: multiply;isolation: isolate"/>
      </g>
      <path id="Path_400" data-name="Path 400" d="M408.714,95.491c-18.348-6.535-13.321-24.631-6.285-27.646s24.631.25,20.861,17.342S408.714,95.491,408.714,95.491Z" transform="translate(-211.861 -66.846)" fill="#964532"/>
      <path id="Path_401" data-name="Path 401" d="M410.7,82.745c-7.983-2.844-11.537-7.875-12.43-12.9-3.955,6.536-3.822,18.606,10.445,23.686,0,0,10.807,6.786,14.577-10.3a19.59,19.59,0,0,0,.46-5.871C419.2,88.067,410.7,82.745,410.7,82.745Z" transform="translate(-211.861 -64.884)" fill="#7f3425"/>
      <path id="Path_402" data-name="Path 402" d="M410.656,91.688C396.24,87.911,400.19,77.448,405.72,75.7s19.351.146,16.389,10.028S410.656,91.688,410.656,91.688Z" transform="translate(-208.812 -61.425)" fill="#ffb94a"/>
      <path id="Path_403" data-name="Path 403" d="M417.237,166.107c-25.385-18.1-25.134-61.576-13.824-78.165s41.973-16.589,55.042-1.507,14.41,39.292,3.1,52.109S417.237,166.107,417.237,166.107Z" transform="translate(-211.839 -61.307)" fill="#964532"/>
      <path id="Path_404" data-name="Path 404" d="M442.963,121.427c-.568-27.057-4.352-34.058-15.894-40.869,0,0,13.623,11.353,7.19,27.247Z" transform="translate(-191.55 -57.868)" fill="#7f3425"/>
      <path id="Path_405" data-name="Path 405" d="M442.186,120.913c-7.8-28.854-13.382-35.565-26.5-40.46,0,0,16.367,9.326,14.333,27.68Z" transform="translate(-199 -57.937)" fill="#7f3425"/>
      <path id="Path_406" data-name="Path 406" d="M430.9,115.2c-13.89-11.735-20.042-26.63-11.242-37.046a18.73,18.73,0,0,1,2.3-2.244c-7.574,1.683-14.373,5.525-18.54,11.636-11.31,16.589-11.562,60.069,13.824,78.165,0,0,33.009-14.745,44.317-27.563a31.628,31.628,0,0,0,7.147-16.207C459.5,130.92,444.168,126.411,430.9,115.2Z" transform="translate(-211.839 -60.911)" fill="#7f3425"/>
      <path id="Path_407" data-name="Path 407" d="M476.471,233.834c-1.89-41.56-44.4-88.505-48.762-88.84s-3.583,17.378,7.14,34.8,22.519,58.728,23.86,63.084S476.805,241.207,476.471,233.834Z" transform="translate(-192.758 -15.682)" fill="#db2828"/>
      <path id="Path_408" data-name="Path 408" d="M428.075,142.585c-2.012-.154-3.033,4.395-2.5,11.049,8.363,6.465,42.8,50.526,46.515,88.4,2.517-1.832,4.354-4.147,4.241-6.627C474.443,193.85,432.432,142.92,428.075,142.585Z" transform="translate(-192.619 -17.259)" fill="#ed4848"/>
      <path id="Path_409" data-name="Path 409" d="M368.213,237.393c1.888-41.56,44.4-93.663,48.759-94s2.848,29.658-7.877,47.084-21.781,51.606-23.122,55.963S367.877,244.765,368.213,237.393Z" transform="translate(-230.088 -16.729)" fill="#ed4848"/>
      <path id="Path_410" data-name="Path 410" d="M405.725,178.494c-13.134,19.1-17.691,48.059-37.275,47.208-1.193-.053,8.482,16.316,6.328,16.063,4.723,2.512,10.349,3.346,11.1.9,1.34-4.357,16.311-40.5,27.034-57.924,6.028-9.8-.041-25.453.758-35.572C410.822,158.672,411.5,170.091,405.725,178.494Z" transform="translate(-229.997 -12.948)" fill="#db2828"/>
      <path id="Path_411" data-name="Path 411" d="M396.117,201.689c-8.135-6.622-24.219-8.893-28.38-6.243s-2.461,21.948,9.46,25.354S396.117,201.689,396.117,201.689Z" transform="translate(-231.741 16.646)" fill="#ffe9ca"/>
      <path id="Path_412" data-name="Path 412" d="M442.422,174.739l-44.948-22.081c20.861,97.016-1.526,85.017,3.687,122.676,25.516,10.517,50.064,6.439,73.724-11C451.22,259.339,442.422,174.739,442.422,174.739Z" transform="translate(-210.927 -10.661)" fill="#ed4848"/>
      <path id="Path_413" data-name="Path 413" d="M417.381,275.018c-5.714-23.883,2.836-46.4,19.1-50.288a23.121,23.121,0,0,1,15.652,2.06c-6.842-24.566-9.708-52.051-9.708-52.051l-44.948-22.081c20.861,97.016-1.526,85.017,3.687,122.676a75.967,75.967,0,0,0,17.747,4.969C418.34,278.584,417.816,276.831,417.381,275.018Z" transform="translate(-210.927 -10.661)" fill="#db2828"/>
      <path id="Path_414" data-name="Path 414" d="M471.429,247.784l-130.106-55c30.087,46.794,73.247,91.1,87.817,95.143s65.337,6.136,75.4,2.13,88.1-87.326,88.1-87.326S491.032,247.313,471.429,247.784Z" transform="translate(-247.691 15.614)" fill="#6d2d4a"/>
      <path id="Path_415" data-name="Path 415" d="M479.806,212.227l-47.019,28.666,15.8-16.745Z" transform="translate(-187.806 28.341)" fill="#934769"/>
      <path id="Path_416" data-name="Path 416" d="M398.053,148.56c-8.466,15.02.069,69.966,3.905,73.644s60.3-2.692,63.105-5.145-11.123-66.967-15.644-70.338-18.973-9.2-22.307-9.5S398.966,146.942,398.053,148.56Z" transform="translate(-212.917 -20.775)" fill="#ed4848"/>
      <path id="Path_417" data-name="Path 417" d="M405.681,209.257c-2.919-2.964-9.947-35.541-10.34-59.687-3.3,21.189,3.1,62.8,6.367,65.931,3.836,3.677,60.557-4.082,63.362-6.535.364-.319.44-1.708.3-3.857C453.482,208.207,409.236,212.866,405.681,209.257Z" transform="translate(-212.924 -12.683)" fill="#db2828"/>
      <path id="Path_418" data-name="Path 418" d="M429.019,191.816c-.071,4.683-2.7,5.96-3.263,9.083s-2.2-1.349-1.491-3.9S429.019,191.816,429.019,191.816Z" transform="translate(-193.5 14.977)" fill="#ff9566"/>
      <path id="Path_419" data-name="Path 419" d="M422.228,195.787c4.436,3.1,6.386,1.986,7.307.922a17.843,17.843,0,0,0,1.987-3.9l-5.039-1.42.142,3.194S419.389,193.8,422.228,195.787Z" transform="translate(-195.151 14.696)" fill="#ffb882"/>
      <path id="Path_420" data-name="Path 420" d="M420.255,196.643c4.436,3.106,6.386,1.987,7.309.923a17.9,17.9,0,0,0,1.986-3.9l-5.037-1.418.142,3.192S417.417,194.658,420.255,196.643Z" transform="translate(-196.443 15.258)" fill="#ffb882"/>
      <path id="Path_421" data-name="Path 421" d="M376.753,204.763c19.125-7.408,76.931-14.176,76.931-14.176l.46,1.473s-56.25,32.582-74.114,29.163C362.1,217.791,369.023,207.757,376.753,204.763Z" transform="translate(-229.751 14.172)" fill="#ffb882"/>
      <path id="Path_422" data-name="Path 422" d="M386.612,211.036c-6.717-1.562-10.033-3.793-11.161-6.123-7.132,3.536-12.331,12.647,4.579,15.884,17.865,3.419,74.114-29.163,74.114-29.163l-.124-.4C436.317,199.218,400.342,214.225,386.612,211.036Z" transform="translate(-229.751 14.598)" fill="#ff9566"/>
      <path id="Path_423" data-name="Path 423" d="M434.5,191.882c-3.5-3.028-11.164-2.461-17.408.189l-1.8,3.69c5.2-1.135,12.866,1.135,15.232,1.7S438,194.908,434.5,191.882Z" transform="translate(-199.261 13.682)" fill="#ffb882"/>
      <path id="Path_424" data-name="Path 424" d="M427.355,190.873c4.048,3.354,10.023,11.138,9.945,12.513-.076,1.345-4.709-3.061-5.926-4.67-1.2-1.592-5.843-4.948-5.843-4.948Z" transform="translate(-192.556 14.36)" fill="#ffb882"/>
      <path id="Path_425" data-name="Path 425" d="M483.188,151.8l-44.235,97.517-44.57,2.346-2.681,2.346L530.774,252,578.36,151.8Z" transform="translate(-214.706 -11.225)" fill="#eaddbe"/>
      <path id="Path_426" data-name="Path 426" d="M446.989,151.8c39.618,17,55.889,50.119,47.587,100.2l47.585-100.2Z" transform="translate(-178.507 -11.224)" fill="#f4e9d3"/>
      <path id="Path_427" data-name="Path 427" d="M442.269,253.276,487.956,151.8h-4.768l-44.235,97.517-44.57,2.346-2.681,2.346Z" transform="translate(-214.706 -11.225)" fill="#d8c091"/>
      <path id="Path_428" data-name="Path 428" d="M537.676,181.49c-17.593,4.021-57.305,48.257-104.053,114.609l1.006,2.514s81.152-62.534,90.7-74.1S555.27,177.469,537.676,181.49Z" transform="translate(-187.259 8.009)" fill="#934769"/>
      <path id="Path_429" data-name="Path 429" d="M526.962,211.663c-7.287,7.908-52.755,39.99-77.9,57.512q-7.568,10.291-15.439,21.452l1.006,2.514s81.625-61.3,91.175-72.867c5.133-6.212,12.914-20.557,16.729-30.743A129.376,129.376,0,0,1,526.962,211.663Z" transform="translate(-187.259 13.481)" fill="#7c3552"/>
      <path id="Path_430" data-name="Path 430" d="M437.958,283.5,480.394,251.6s20.957-39.293,42.77-66.572C503.894,198.846,473.227,234.39,437.958,283.5Z" transform="translate(-184.42 10.535)" fill="#7c3552"/>
      <path id="Path_431" data-name="Path 431" d="M343.551,190.839c-10.556,7.541,12.063,23.123,33.176,44.738s59.817,28.15,120.641,57.305l2.514-1.509C427.5,223.01,354.107,183.3,343.551,190.839Z" transform="translate(-247.987 13.74)" fill="#934769"/>
      <path id="Path_432" data-name="Path 432" d="M474.651,267.336c-50.85-21.389-84.051-28.064-103.322-47.1-11.285-11.148-22.95-20.623-29.984-28.23-3.783,8.221,15.9,24.523,34.875,43.957,21.113,21.614,60.322,26.4,121.145,55.553l2.514-1.509C491.449,282.047,483.008,274.491,474.651,267.336Z" transform="translate(-247.985 15.103)" fill="#7c3552"/>
      <path id="Path_433" data-name="Path 433" d="M441.754,265.55l7.342-11.77a128.947,128.947,0,0,0-23.57-17.712Z" transform="translate(-192.56 43.951)" fill="#dbc7a1"/>
      <path id="Path_434" data-name="Path 434" d="M439.565,262.907l-9.253-3.22s7.369-12.995,27.273-22.418Z" transform="translate(-189.426 44.736)" fill="#eaddbe"/>
      <path id="Path_435" data-name="Path 435" d="M442.488,144.55c-6.285-3.362-15.583-8.3-18.1-8.547-2.651-.265-18.922,7.5-25.8,11.227,13.079,45.565,35.857,64.508,35.857,64.508S444.581,145.671,442.488,144.55Z" transform="translate(-210.197 -21.57)" fill="#ffe9ca"/>
      <path id="Path_436" data-name="Path 436" d="M442.488,141.5l-1.557-.832c-1.077,15.7-8.189,62.061-8.189,62.061s-20.79-17.314-34.051-58.6l-.1.056c13.079,45.565,36.345,66.941,36.345,66.941S444.581,142.616,442.488,141.5Z" transform="translate(-210.197 -18.515)" fill="#db2828"/>
      <path id="Path_437" data-name="Path 437" d="M404.921,158.748c-.251-29.909,4.273-47.251,4.273-47.251l17.845,16.086-1.006,26.893s-4.273,9.048-9.8,9.8S404.921,158.748,404.921,158.748Z" transform="translate(-206.058 -37.611)" fill="#ffb882"/>
      <g id="Group_59" data-name="Group 59" transform="translate(92.238 304.108)">
        <path id="Path_438" data-name="Path 438" d="M563.268,252.338H452.1c-19.673,0-25.327,57.256-5.654,57.256l111.169,0C547.571,301.888,548.959,261.422,563.268,252.338Z" transform="translate(-279.108 -249.505)" fill="#e0d0b1"/>
        <path id="Path_439" data-name="Path 439" d="M520.313,250.636H365.339c-30.786-.92-34.182,61.983-3.4,62.9H516.918C490.525,312.752,493.919,249.848,520.313,250.636Z" transform="translate(-340.481 -250.626)" fill="#ff9a3e"/>
        <path id="Path_440" data-name="Path 440" d="M515.539,299.794c-11.267-1.322-16.673-14.452-16.8-28.394H340.5c.308,14.471,7.22,28.112,21.434,28.538H515.539Z" transform="translate(-340.47 -237.024)" fill="#ed8129"/>
        <path id="Path_441" data-name="Path 441" d="M562.2,250.632H438.792l-1.114,5.96h123.41a3.759,3.759,0,0,0,3.538-2.98h0A2.4,2.4,0,0,0,562.2,250.632Z" transform="translate(-276.842 -250.622)" fill="#ffb94a"/>
        <path id="Path_442" data-name="Path 442" d="M560.434,285.517H437.49l-1.191,5.178H559.243a3.724,3.724,0,0,0,3.576-2.588h0C563.148,286.677,562.079,285.517,560.434,285.517Z" transform="translate(-277.745 -227.781)" fill="#ffb94a"/>
        <path id="Path_443" data-name="Path 443" d="M551.488,259.28H455.541c-19.672,0-21.922,38.436-2.249,38.436l96.365,0C546.418,287.684,546.939,270.986,551.488,259.28Z" transform="translate(-275.574 -244.96)" fill="#f4e9d4"/>
        <path id="Path_444" data-name="Path 444" d="M461.134,250.635H442.708c-14.479,11.864-16.16,51-2.373,62.9h17.4C431.345,312.751,434.739,249.847,461.134,250.635Z" transform="translate(-281.301 -250.625)" fill="#ffb94a"/>
        <g id="Group_58" data-name="Group 58" transform="translate(8.381 2.206)" opacity="0.39" style="mix-blend-mode: overlay;isolation: isolate">
          <path id="Path_445" data-name="Path 445" d="M486.14,310.46l-118.008,0a21.347,21.347,0,0,1-18.839-11.608c-5.482-10.105-4.893-24.887,1.4-35.145,4.786-7.8,12.169-11.974,20.868-11.737H488.246l-2.58,1.991c-7.1,5.481-11.578,16.488-11.7,28.723-.106,11.189,3.521,20.835,9.7,25.8ZM370.912,254.183c-7.607,0-14.087,3.778-18.325,10.686-5.9,9.622-6.467,23.469-1.339,32.923a18.987,18.987,0,0,0,16.913,10.443l111.984,0c-5.4-5.724-8.5-15.033-8.4-25.577.111-11.578,4-22.164,10.3-28.47H371.531C371.324,254.184,371.117,254.183,370.912,254.183Z" transform="translate(-345.546 -251.959)" fill="#fff"/>
        </g>
      </g>
      <g id="Group_61" data-name="Group 61" transform="translate(0 357.094)">
        <path id="Path_446" data-name="Path 446" d="M625.841,285.94l-172.076,0c-30.452,0-32.061,110.057-1.61,110.057l172.076,0C607.725,381.18,604.826,303.4,625.841,285.94Z" transform="translate(-189.562 -280.491)" fill="#e0d0b1"/>
        <path id="Path_447" data-name="Path 447" d="M559.178,282.666H319.3c-47.767-1.767-45.176,119.145,2.593,120.912l239.884,0C520.819,402.063,518.226,281.152,559.178,282.666Z" transform="translate(-284.739 -282.646)" fill="#5e85bc"/>
        <path id="Path_448" data-name="Path 448" d="M559.474,377.156c-17.606-2.542-27.613-27.78-29.542-54.577H284.986c2.284,27.815,14.684,54.037,36.74,54.853l237.766,0Z" transform="translate(-284.577 -256.501)" fill="#4e75a5"/>
        <path id="Path_449" data-name="Path 449" d="M625.274,282.658H434.25l-.98,11.459H624.295c2.548,0,4.833-2.565,5.1-5.729h0C629.669,285.223,627.823,282.658,625.274,282.658Z" transform="translate(-187.49 -282.639)" fill="#749dce"/>
        <path id="Path_450" data-name="Path 450" d="M626.929,349.715h-190.3l-1.2,9.952h190.3a5.578,5.578,0,0,0,5.212-4.976h0C631.274,351.944,629.477,349.715,626.929,349.715Z" transform="translate(-186.076 -238.734)" fill="#749dce"/>
        <path id="Path_451" data-name="Path 451" d="M609.089,299.281H460.576c-30.451,0-29.137,73.884,1.314,73.884l149.163,0C604.785,353.879,603.507,321.784,609.089,299.281Z" transform="translate(-184.141 -271.755)" fill="#f4e9d4"/>
        <path id="Path_452" data-name="Path 452" d="M467.575,282.664H439.057c-20.931,22.809-18.652,98.032,4.175,120.914h26.938C429.216,402.061,426.623,281.15,467.575,282.664Z" transform="translate(-193.136 -282.644)" fill="#749dce"/>
        <g id="Group_60" data-name="Group 60" transform="translate(12.989 4.24)" opacity="0.39" style="mix-blend-mode: overlay;isolation: isolate">
          <path id="Path_453" data-name="Path 453" d="M513.848,397.662l-182.662,0c-12.746-.422-23.6-8.342-30.608-22.311-9.748-19.427-10.681-47.839-2.221-67.556,6.435-14.992,17.343-23.017,30.838-22.562H509.812l-3.745,3.827c-10.3,10.534-15.864,31.692-14.519,55.214,1.231,21.505,8.05,40.046,18.239,49.591ZM328.467,289.485c-11.773,0-21.331,7.261-27.032,20.54-7.936,18.5-7.081,45.115,2.037,63.286,4.458,8.893,12.847,19.589,27.482,20.074l173.339,0c-9.07-11-15.028-28.9-16.19-49.162-1.273-22.256,3.422-42.6,12.4-54.724H329.427C329.108,289.488,328.785,289.485,328.467,289.485Z" transform="translate(-292.589 -285.209)" fill="#fff"/>
        </g>
      </g>
      <path id="Path_454" data-name="Path 454" d="M435.586,195.942c11.754-6.933,17.785-21,16.936-36.019-.731-.443-1.534-.9-2.454-1.382-.013-.089-.023-.212-.04-.28-.043-.161-.1-.261-.162-.3-3.727-1.994-8.505-4.534-12.308-6.328l.91-24.338a41.886,41.886,0,0,0-19.1-11.793,230.694,230.694,0,0,0-2.932,39.886c-3.953,1.87-7.792,3.8-10.37,5.2l-.1.056c.017.058.035.114.051.172-.692.336-1.3.644-1.8.915-1.981.659-8.893,8.1-16.9,19.265C399.3,198.469,419.831,205.232,435.586,195.942Z" transform="translate(-217.576 -34.986)" fill="#c94343" opacity="0.6" style="mix-blend-mode: multiply;isolation: isolate"/>
      <path id="Path_455" data-name="Path 455" d="M406.474,116.309c-9.626,41.431,23.866,57.61,23.866,57.61s26.416-25.42,29.57-57.224c1.7-17.193-.783-22.435-17.929-25.132C424.878,88.87,408.977,105.532,406.474,116.309Z" transform="translate(-206.172 -50.853)" fill="#ffb882"/>
      <path id="Path_456" data-name="Path 456" d="M410.73,138.659c8.811-25.645,10.751-47.216.265-46.085S395.9,130.513,410.73,138.659Z" transform="translate(-208.433 -50.028)" fill="#7f3425"/>
      <path id="Path_457" data-name="Path 457" d="M412.691,132.282c2.2-21.939.295-24.626-6.6-24.669C398.186,107.563,397.529,128.66,412.691,132.282Z" transform="translate(-208.883 -40.154)" fill="#ffb882"/>
      <path id="Path_458" data-name="Path 458" d="M409.4,125.321c1.319-13.147.177-14.757-3.955-14.783C400.71,110.51,400.318,123.15,409.4,125.321Z" transform="translate(-207.862 -38.239)" fill="#db5b3e"/>
      <path id="Path_459" data-name="Path 459" d="M409.1,124.093c.036-8.457-.893-9.412-3.857-9.172C401.84,115.2,402.431,123.274,409.1,124.093Z" transform="translate(-207.173 -35.39)" fill="#ffb882"/>
      <g id="Group_64" data-name="Group 64" transform="translate(211.405 58.472)">
        <path id="Path_460" data-name="Path 460" d="M435.57,118.218c.591-3.447-.655-6.475-2.8-6.765s-4.354,2.29-4.951,5.75.655,6.48,2.788,6.76S434.971,121.676,435.57,118.218Z" transform="translate(-402.56 -96.125)" fill="#66423b"/>
        <path id="Path_461" data-name="Path 461" d="M423.14,116.993c.813-3.966-.366-7.522-2.659-7.974s-4.781,2.408-5.593,6.374.377,7.534,2.658,7.971S422.327,120.951,423.14,116.993Z" transform="translate(-411.097 -97.735)" fill="#66423b"/>
        <path id="Path_462" data-name="Path 462" d="M412.684,114s8.165-4.244,14.328-2.183c0,0-.976-3.417-5.861-3.285S412.684,114,412.684,114Z" transform="translate(-412.373 -98.029)" fill="#66423b"/>
        <path id="Path_463" data-name="Path 463" d="M439.072,116.48s-5.792-5-11.744-4.243c0,0,1.881-2.795,6.058-1.881S439.072,116.48,439.072,116.48Z" transform="translate(-402.785 -96.951)" fill="#66423b"/>
        <g id="Group_62" data-name="Group 62">
          <path id="Path_464" data-name="Path 464" d="M412.57,110.6l-.074-.884c3.326-4.862,9.856-7.382,13.465-7.534l-.217,3.036C422.884,104.722,416.06,106.628,412.57,110.6Z" transform="translate(-412.496 -102.182)" fill="#7c4343"/>
        </g>
        <g id="Group_63" data-name="Group 63" transform="translate(27.045 1.529)">
          <path id="Path_465" data-name="Path 465" d="M440.251,113.67c-2.823-5.557-9.664-7.585-11.411-7.62l.717-2.944c1.953.124,8.214,2.672,11.36,9.593Z" transform="translate(-428.84 -103.106)" fill="#7c4343"/>
        </g>
        <path id="Path_466" data-name="Path 466" d="M428.956,121.993c-.046.111-.043.22-.1.326a4.262,4.262,0,0,1-5.8,1.785,4.392,4.392,0,0,1-2.249-3.151,4.353,4.353,0,0,0,2.02,5.507,4.142,4.142,0,0,0,6.122-4.468Z" transform="translate(-407.262 -89.891)" fill="#ea7b59"/>
        <path id="Path_467" data-name="Path 467" d="M416.284,127.562l14.615,2.351s-3.156,7.046-9.081,5.927C416.14,134.768,416.284,127.562,416.284,127.562Z" transform="translate(-410.016 -85.565)" fill="#491d2e"/>
        <path id="Path_468" data-name="Path 468" d="M416.938,127.837l12.411,2s.2,3.374-6.877,2.363C415.015,131.132,416.938,127.837,416.938,127.837Z" transform="translate(-409.733 -85.385)" fill="#ffebeb"/>
        <path id="Path_469" data-name="Path 469" d="M423.517,134.8c.225-.9-1.268-.21-2.833-.47s-2.606-1.37-2.833-.47.86,1.84,2.424,2.1S423.291,135.7,423.517,134.8Z" transform="translate(-409.009 -81.665)" fill="#ef8f6f"/>
      </g>
    </g>
    <g id="Group_69" data-name="Group 69" transform="translate(523.854 335.726)">
      <path id="Path_470" data-name="Path 470" d="M579.058,318.6H404.572L393.354,486.921l114.6,157.362Z" transform="translate(-333.797 -170.892)" fill="#8b54b2"/>
      <path id="Path_471" data-name="Path 471" d="M581.739,322.354H407.253L396.035,490.675l114.6,157.362Z" transform="translate(-332.041 -168.435)" fill="#634c84"/>
      <path id="Path_472" data-name="Path 472" d="M601.485,327.225H427L363.544,621.436l166.834,31.472Z" transform="translate(-353.314 -165.246)" fill="#e2d5af"/>
      <path id="Path_473" data-name="Path 473" d="M415.377,339.958c31.055-.831,57.151-3.03,57.151-10.127a4.011,4.011,0,0,0-.146-.867H405.368Z" transform="translate(-325.931 -164.107)" fill="#f7f0da"/>
      <path id="Path_474" data-name="Path 474" d="M402.837,326.258c21.3,3.349,31.8,14.287,28.781,28.056C427.771,371.839,402.837,326.258,402.837,326.258Z" transform="translate(-327.588 -165.879)" fill="#3b2d51"/>
      <path id="Path_475" data-name="Path 475" d="M616.957,341.779H442.471L371.365,667.461H545.851Z" transform="translate(-348.194 -155.717)" fill="#634c84"/>
      <path id="Path_476" data-name="Path 476" d="M637.466,341.779H462.98L391.874,667.461H566.361Z" transform="translate(-334.765 -155.717)" fill="#4c396b"/>
      <path id="Path_477" data-name="Path 477" d="M444.459,355.447l-62.392,285.77h153.1l62.392-285.77ZM532.643,636.5H388.072l58.915-276.342H591.559Z" transform="translate(-341.187 -146.768)" fill="#eaddbe" style="mix-blend-mode: overlay;isolation: isolate"/>
      <path id="Path_478" data-name="Path 478" d="M420.4,318.685l4.692,5.629-1.18,8.165,20.4,24.47h26.668l6.322-38.264Z" transform="translate(-316.09 -170.837)" fill="#c94343" opacity="0.6" style="mix-blend-mode: multiply;isolation: isolate"/>
      <path id="Path_479" data-name="Path 479" d="M678.2,293.441H496.017a10.692,10.692,0,0,0-10.673,10.049L462.153,688.934a10.691,10.691,0,0,0,10.671,11.335l195.776,0a10.69,10.69,0,0,0,10.688-10.425l9.6-385.444A10.692,10.692,0,0,0,678.2,293.441Z" transform="translate(-288.764 -187.365)" fill="#f24c5c"/>
      <path id="Path_480" data-name="Path 480" d="M558.95,293.44l-71.472,0c-2.217,0-3.47,4.4-2.856,10.049l41.885,385.444c.669,6.146,3.271,11.333,5.686,11.333H609c2.275,0,3.525-4.627,2.813-10.425L564.593,304.4C563.856,298.391,561.307,293.44,558.95,293.44Z" transform="translate(-274.141 -187.366)" fill="#d63444"/>
      <g id="Group_66" data-name="Group 66" transform="translate(217.456 123.099)" style="mix-blend-mode: overlay;isolation: isolate">
        <path id="Path_481" data-name="Path 481" d="M645.7,680.057H488.776v-1.3l.324-375.024H654.523a11.122,11.122,0,0,1,11.121,11.4l-8.821,354.081A11.062,11.062,0,0,1,645.7,680.057ZM491.382,677.45H645.7a8.467,8.467,0,0,0,8.514-8.305l8.821-354.081a8.514,8.514,0,0,0-8.515-8.729H491.707Z" transform="translate(-488.776 -303.729)" fill="#eaddbe"/>
      </g>
      <path id="Path_482" data-name="Path 482" d="M510.49,293.441H452.351l-6.935,406.828h64.721Z" transform="translate(-299.709 -187.366)" fill="#d63444"/>
      <path id="Path_483" data-name="Path 483" d="M449.652,293.441l-.113,6.654,50.267.514,3.576,399.658h4.056l.353-406.827Z" transform="translate(-297.01 -187.366)" fill="#b72036"/>
      <path id="Path_484" data-name="Path 484" d="M559.84,382.18s43.637,127.223,43.71,131.669-60.512,110.077-60.512,110.077l-1.431-.424,30.629-106.69-25.89-63.507Z" transform="translate(-236.73 -129.264)" fill="#6d3e4c"/>
      <path id="Path_485" data-name="Path 485" d="M555.79,400.865l-16.959,31.706L572.1,503.442,543.423,611.269l.281.084c11.426-26.067,41.769-104.2,41.709-107.91C585.362,500.386,568.686,438.742,555.79,400.865Z" transform="translate(-238.547 -117.031)" fill="#592e3c"/>
      <path id="Path_486" data-name="Path 486" d="M518.113,398.081c18.574,88.59,73.417,239.328,73.417,239.328h1.63L571.276,445.046l10.862-10.294-6.186-52.113S514.2,379.422,518.113,398.081Z" transform="translate(-252.229 -129.103)" fill="#6d3e4c"/>
      <path id="Path_487" data-name="Path 487" d="M522.946,419.964c25.509-23.734,34.6-23.069,41.924-20.186a21.55,21.55,0,0,0,13.753.667l-3.549-14.419-51.241-2.661Z" transform="translate(-248.948 -128.489)" fill="#592e3c"/>
      <g id="Group_67" data-name="Group 67" transform="translate(265.706 257.78)">
        <path id="Path_488" data-name="Path 488" d="M527.826,385.12c-6.6,2.345-10.829,5.879-9.713,11.2,18.574,88.59,73.417,239.328,73.417,239.328h1.506C584.229,604.625,544.739,464.4,527.826,385.12Z" transform="translate(-517.934 -385.12)" fill="#592e3c"/>
      </g>
      <path id="Path_489" data-name="Path 489" d="M556.584,428.717l-15.139-5.823,15.306-.333,13.309-10.98Z" transform="translate(-236.835 -110.014)" fill="#592e3c"/>
      <path id="Path_490" data-name="Path 490" d="M541.179,306.118c28.716,23.522,39.409,68.124,39.409,68.124l55.293-2.444,2.75,13.137s-46.129,26.883-70.57,19.551S541.179,306.118,541.179,306.118Z" transform="translate(-237.01 -179.065)" fill="#ffb94a"/>
      <path id="Path_491" data-name="Path 491" d="M600.543,361.187c11.811,3.161,19.8.333,23.123-3.66s8.818-14.307,3.328-14.807-28.946,8.984-28.946,8.984Z" transform="translate(-199.775 -155.113)" fill="#ff9566"/>
      <path id="Path_492" data-name="Path 492" d="M585.1,384.252c-16.164-4.848-9.76-44.807-43.917-78.134,0,0,2.444,91.035,26.883,98.368s70.57-19.551,70.57-19.551l-1.552-7.418C621.474,380.925,601.991,389.32,585.1,384.252Z" transform="translate(-237.01 -179.065)" fill="#ff9239"/>
      <path id="Path_493" data-name="Path 493" d="M611.119,361.593c0,.569-7.82-16.769-7.82-16.769l-15.3,1.09,1.774,11.368,4.658.19-5.545,3.22,5.99,9.475Z" transform="translate(-206.358 -153.723)" fill="#eaddbe"/>
      <path id="Path_494" data-name="Path 494" d="M526.311,300.212c-24.052,30.467-16.408,71.756-10.747,91.4s-3.506,59.283,11.577,76.807c0,0,21.785-23.843,37.045-21.849s18.962,9.738,22.958,6.321-1.086-51.027,1.455-64.126-1.244-48.462-18.2-68.965S526.311,300.212,526.311,300.212Z" transform="translate(-257.578 -182.936)" fill="#ffb94a"/>
      <path id="Path_495" data-name="Path 495" d="M523.143,309.5c-2.661,0-5.231,1.35-7.668,3.819-10.243,26.832-4.453,56.465.084,72.208,5.661,19.648-3.506,59.283,11.577,76.806,0,0,10.547-11.539,22.106-17.889a333.6,333.6,0,0,0,1.852-35.569C551.094,353.993,538.58,309.5,523.143,309.5Z" transform="translate(-257.574 -176.85)" fill="#ff6d2c"/>
      <path id="Path_496" data-name="Path 496" d="M535.049,323.1c-16.134-25.266-9.25-35.564-9.25-35.564s-8.752-13.258.131-25.749c0,0,.718-18.684,23.118-22.864,0,0,14.767-15.914,26.484-6.733,0,0,13.686-10.873,20.178,10.37s-1.66,21.091-1.66,21.091,12.823,27.518-7.883,34.248S535.049,323.1,535.049,323.1Z" transform="translate(-249.601 -229.337)" fill="#7a4939"/>
      <path id="Path_497" data-name="Path 497" d="M584.746,297.811s-15.866-.786-20.683-15.338c0,0-14.639-11.631-4.761-32.163,0,0-2.434-12.859,3.2-20.482-7.413,2.293-13.453,8.773-13.453,8.773-22.4,4.18-23.117,22.864-23.117,22.864-8.883,12.492-.131,25.749-.131,25.749s-6.884,10.3,9.25,35.562c0,0,29.138-17.692,49.791-24.752C584.777,297.891,584.746,297.811,584.746,297.811Z" transform="translate(-249.601 -229.015)" fill="#603428"/>
      <path id="Path_498" data-name="Path 498" d="M551.648,306.6l-31.884-6.392c25.049,11.914,49.018,33.9,49.018,33.9S560.524,312.013,551.648,306.6Z" transform="translate(-251.031 -182.934)" fill="#eaddbe"/>
      <path id="Path_499" data-name="Path 499" d="M519.764,322.814l23.217-57.127,20.163,27.189-8.554,40.631Z" transform="translate(-251.031 -205.537)" fill="#ffb882"/>
      <path id="Path_500" data-name="Path 500" d="M676.581,288.374l-50.406,94.091L544,389.8l.305,1.527H656.419l57.127-93.786Z" transform="translate(-235.164 -190.683)" fill="#dbccad"/>
      <path id="Path_501" data-name="Path 501" d="M626.175,345.236,544,352.568l.305,1.527H656.419l-25.7-3.663Z" transform="translate(-235.164 -153.453)" fill="#d1bb93"/>
      <path id="Path_502" data-name="Path 502" d="M544.182,352.039H656.3l-25.7-3.663Z" transform="translate(-235.043 -151.397)" fill="#ba9e70"/>
      <path id="Path_503" data-name="Path 503" d="M652.992,289.975l-56.648,96.642,25.8,3.66,57.127-93.786Z" transform="translate(-200.891 -189.635)" fill="#efe3ca"/>
      <path id="Path_504" data-name="Path 504" d="M642.783,289.975l-30.846,100.3,57.127-93.786Z" transform="translate(-190.682 -189.635)" fill="#f9f0e1"/>
      <path id="Path_505" data-name="Path 505" d="M513.869,361.418c3.42,20.522-3.258,55.315,10.251,71.758,10.177-42.336,26.373-56.867,61.272-53.895-.285-9.541-.412-18.507.28-23.779C566.478,352.86,534.125,350.656,513.869,361.418Z" transform="translate(-254.891 -148.152)" fill="#ff6d2c"/>
      <path id="Path_506" data-name="Path 506" d="M549.143,378.564c-2.555-38.185-14.353-80.218-20.741-78.079-7.554,2.528-20.166,18.536-22.4,41.448-2.044,20.954,12.306,67.672,22.845,76.226s70.725-34.066,86.692-41.094l2.874-17.413C596.3,359.056,567.818,368.255,549.143,378.564Z" transform="translate(-260.171 -182.805)" fill="#ffb94a"/>
      <path id="Path_507" data-name="Path 507" d="M534.679,352.808c18.73-7.85,43.523-13.741,62.993-12.252l-3.033,14.027c.718-.357,1.4-.687,1.994-.95l2.874-17.413C579.077,335.671,553.225,343.485,534.679,352.808Z" transform="translate(-241.265 -159.374)" fill="#ff9239"/>
      <path id="Path_508" data-name="Path 508" d="M535.089,399.289c-10.539-8.553-22.8-60.309-20.759-81.261a70.847,70.847,0,0,1,1.871-10.585,66.746,66.746,0,0,0-10.19,29.883c-2.044,20.954,10.22,72.708,20.759,81.261s72.812-39.1,88.779-46.129l1.775-10.748C595.615,373.56,544.581,406.994,535.089,399.289Z" transform="translate(-260.182 -178.198)" fill="#ff9239"/>
      <path id="Path_509" data-name="Path 509" d="M585.085,542.56H562.692s-3.094-5.529,1.479-7.817C570.085,531.786,585.085,542.56,585.085,542.56Z" transform="translate(-223.594 -29.711)" fill="#f2e9ce"/>
      <path id="Path_510" data-name="Path 510" d="M557.525,548.463h-12.6l-5.586-17.3s5.3-9.483,7.986-4.491c1.658,3.075.655,12.465.692,16.329A60.015,60.015,0,0,0,557.525,548.463Z" transform="translate(-238.218 -35.613)" fill="#f2e9ce"/>
      <path id="Path_511" data-name="Path 511" d="M408.868,325.095c-3.328,10.148,21.128,29.281,27.283,31.941l-18.3,4.326-18.465-27.116,1.385-15.7Z" transform="translate(-329.847 -170.926)" fill="#634c84"/>
      <path id="Path_512" data-name="Path 512" d="M455.682,361.916c-19.051-10.878-25.539-29.286-27.4-43.366L357.362,644.221c2.954,16.37,10.14,29.87,24.073,38.794Z" transform="translate(-357.362 -170.926)" fill="#503d70"/>
      <path id="Path_513" data-name="Path 513" d="M483.528,391.675H456.3l-3.248,216.811h30.3Z" transform="translate(-294.707 -123.048)" fill="#eaddbe" style="mix-blend-mode: overlay;isolation: isolate"/>
      <path id="Path_514" data-name="Path 514" d="M456.085,314.6h27.223l2.03-10.045H455.034Z" transform="translate(-293.412 -180.091)" fill="#eaddbe" style="mix-blend-mode: overlay;isolation: isolate"/>
      <path id="Path_515" data-name="Path 515" d="M456.085,327.868h27.223l2.03-10.045H455.034Z" transform="translate(-293.412 -171.402)" fill="#eaddbe" style="mix-blend-mode: overlay;isolation: isolate"/>
      <path id="Path_516" data-name="Path 516" d="M590.012,338.374c.5,5.254-.773,8.591-1.944,9.194s-5.148-1.335-5.813-3.008S589.569,333.739,590.012,338.374Z" transform="translate(-210.142 -158.795)" fill="#ff9566"/>
      <path id="Path_517" data-name="Path 517" d="M589.936,336.018c-.349,9.874-1.309,10.769-2.795,11.669s-6.113-.28-6.636-1.827.349-5.437,1.572-5.116a16.8,16.8,0,0,0,2.707.42Z" transform="translate(-211.363 -159.489)" fill="#ffb882"/>
      <path id="Path_518" data-name="Path 518" d="M594.2,335.287c-2.055-3.975-17.975-3.67-26.451,4.223l5.214,14.2c7.319-3.162,13.662-8.706,18.283-8.247S596.257,339.261,594.2,335.287Z" transform="translate(-219.611 -161.607)" fill="#ffb882"/>
      <path id="Path_519" data-name="Path 519" d="M586.423,337.292c-.349,9.874-1.311,10.769-2.795,11.669s-6.113-.28-6.637-1.827.351-5.437,1.572-5.116a16.836,16.836,0,0,0,2.707.42Z" transform="translate(-213.663 -158.654)" fill="#ffb882"/>
      <path id="Path_520" data-name="Path 520" d="M581.763,333.088c5.348,1.226,9.162,3.75,10.941,6.214a33.2,33.2,0,0,1,4.059,10.208c.075,1.443-2.989,3.257-3.642,1.364s-2.7-7.552-3.258-7.784-6-3.118-6.262-3.069S581.763,333.088,581.763,333.088Z" transform="translate(-210.437 -161.407)" fill="#ffb882"/>
      <path id="Path_521" data-name="Path 521" d="M583.069,354.1c0,.667-7.82-19.63-7.82-19.63l-15.3,1.276,1.774,13.309,4.658.222-5.545,3.771,5.99,11.09Z" transform="translate(-224.723 -160.503)" fill="#eaddbe"/>
      <path id="Path_522" data-name="Path 522" d="M518.388,303.551l4.436-7.32,34.936,12.976-2.107,6.655Z" transform="translate(-251.931 -185.539)" fill="#eaddbe"/>
      <path id="Path_523" data-name="Path 523" d="M561.266,327.373c-.235-.286-.475-.541-.713-.811l1.147-3.624-1.266-.47,3.862-18.346c-5.8-10.867-13.86-21.707-22.913-28.862l-14.171,34.869-.449-.167-4.436,7.321.564.185c-3.166,1.536-6.976,5.143-10.518,10.357,20.08-.763,47.946,19.154,58.162,13.011a5.25,5.25,0,0,0,1.83-1.963A88.527,88.527,0,0,0,561.266,327.373Z" transform="translate(-255.87 -199.269)" fill="#c94343" opacity="0.6" style="mix-blend-mode: multiply;isolation: isolate"/>
      <path id="Path_524" data-name="Path 524" d="M540.852,259.937c-12.205,29.951-12.078,57.921-11.979,60.087s19.66,16.645,26.373,17.966c0,0,23.845-30.136,28.786-55.335s-1.441-31.419-9-32.972S545.586,248.32,540.852,259.937Z" transform="translate(-245.079 -216.467)" fill="#ffb882"/>
      <path id="Path_525" data-name="Path 525" d="M536.385,299.973c16.567-39.638,21.207-58.763,7.091-51.548s-13.135,45.785-13.135,45.785Z" transform="translate(-244.115 -217.82)" fill="#603428"/>
      <path id="Path_526" data-name="Path 526" d="M538.794,275.857c.41-9.372-10.11-17.785-12.025-7.69s4.426,25.111,6.947,22.051S538.655,279,538.794,275.857Z" transform="translate(-246.676 -206.912)" fill="#ffb882"/>
      <path id="Path_527" data-name="Path 527" d="M535.617,274.325c.258-5.9-6.356-11.183-7.559-4.833s2.782,15.789,4.367,13.865S535.531,276.3,535.617,274.325Z" transform="translate(-245.746 -204.933)" fill="#db5b3e"/>
      <path id="Path_528" data-name="Path 528" d="M533.907,275.715c.169-3.874-4.177-7.349-4.968-3.177s1.83,10.377,2.873,9.113A14.212,14.212,0,0,0,533.907,275.715Z" transform="translate(-245.119 -202.291)" fill="#ffb882"/>
      <g id="Group_68" data-name="Group 68" transform="translate(299.266 45.838)">
        <path id="Path_529" data-name="Path 529" d="M560.287,275.8c1.105-2.557.816-5.068-.644-5.6s-3.53,1.114-4.63,3.675-.814,5.065.639,5.595S559.188,278.37,560.287,275.8Z" transform="translate(-527.656 -248.485)" fill="#4f3131"/>
        <path id="Path_530" data-name="Path 530" d="M554.7,268.629c2.206-.766,3.2,26.6,1.815,29.6-.682,1.493-9.927-3.617-9.927-3.617S554.3,268.76,554.7,268.629Z" transform="translate(-532.734 -249.459)" fill="#ffb882"/>
        <path id="Path_531" data-name="Path 531" d="M555.119,269.23c1.016,5.835,2,25.508.824,27.995-.531,1.127-6.366-1.752-8.75-3.066-.159.554-.26.874-.26.874s9.71,5.926,10.357,4.433C558.536,296.583,556.9,270.713,555.119,269.23Z" transform="translate(-532.509 -249.056)" fill="#ea7b59"/>
        <path id="Path_532" data-name="Path 532" d="M550.983,271.914c1.307-2.479,1.231-5.007-.167-5.664s-3.6.811-4.9,3.278-1.241,5.009.159,5.672S549.67,274.379,550.983,271.914Z" transform="translate(-533.793 -251.112)" fill="#4f3131"/>
        <path id="Path_533" data-name="Path 533" d="M564.779,259.745c-.763-2.2-13.784-2.965-16.986-2.633s-3.864,2.664-3.973,5.1,13.6,7.784,18.391,4.987C564.417,265.912,565.542,261.943,564.779,259.745Z" transform="translate(-534.547 -257.038)" fill="#7a4939"/>
        <path id="Path_534" data-name="Path 534" d="M557.992,268.776c-.51,4.354,6.786,6.457,8.505,4.668s3.2-3.8,2.426-5.6-5.436-7.655-7.259-6.463S558.22,266.774,557.992,268.776Z" transform="translate(-525.284 -254.301)" fill="#7a4939"/>
        <path id="Path_535" data-name="Path 535" d="M545.392,292.823c.232-.452-.869-1.557-2.457-2.471s-3.06-1.286-3.29-.836.869,1.559,2.457,2.47S545.162,293.274,545.392,292.823Z" transform="translate(-537.3 -235.898)" fill="#ea7b59"/>
        <path id="Path_536" data-name="Path 536" d="M538.216,284.1c.3-.513.488-.822.488-.822,4.089,5.873,7,9.329,16.369,14a9.788,9.788,0,0,0-.976.738C548.484,295.926,539.171,288.278,538.216,284.1Z" transform="translate(-538.216 -239.859)" fill="#ea7b59"/>
      </g>
      <path id="Path_537" data-name="Path 537" d="M615.407,356.412c4.547-4.769,8.317-14.53,7.208-17.967s-4.1-2.108-4.991-.667-1.885,12.2-2.439,14.752A5.713,5.713,0,0,0,615.407,356.412Z" transform="translate(-188.686 -159.321)" fill="#ff9566"/>
      <path id="Path_538" data-name="Path 538" d="M613.673,357.209c3.759-3.561,5.917-10.848,4.241-13.417a3.088,3.088,0,0,0-5.1-.5c-.649,1.077.131,9.109,0,11.014A3.839,3.839,0,0,0,613.673,357.209Z" transform="translate(-190.279 -155.459)" fill="#ff9566"/>
    </g>
    <g id="Group_78" data-name="Group 78" transform="translate(103.075 431.859)">
      <path id="Path_539" data-name="Path 539" d="M222.443,357.731h166.7l23.541,300.444h-188.3Z" transform="translate(-24.92 -241.405)" fill="#b7bf47"/>
      <path id="Path_540" data-name="Path 540" d="M239.286,524.657l62.588-166.9h26.079l-10.125,30.067,9.2-1.841,8.284,147.881h28.84l15.34,57.987h12.272l11.045,36.817,4.6,29.147h-185Z" transform="translate(-24.941 -241.389)" fill="#999b32"/>
      <g id="Group_70" data-name="Group 70" transform="translate(203.66 125.385)" opacity="0.58" style="mix-blend-mode: overlay;isolation: isolate">
        <path id="Path_541" data-name="Path 541" d="M226.152,364.587,374.978,363.2,391.467,643.3l-163.558.879Zm146.666,1-144.366,1.335,1.769,274.794,158.759-.859Z" transform="translate(-226.152 -363.205)" fill="#fff9f1"/>
      </g>
      <path id="Path_542" data-name="Path 542" d="M322.6,357.731h42.11L383.1,658.175H338.9Z" transform="translate(40.656 -241.405)" fill="#a5a53a"/>
      <path id="Path_543" data-name="Path 543" d="M333.049,385.556h20.6l12.68,212.038H344.705Z" transform="translate(47.498 -223.186)" fill="#fff9f1" opacity="0.42" style="mix-blend-mode: overlay;isolation: isolate"/>
      <path id="Path_544" data-name="Path 544" d="M327.247,357.731l16.181,300.445h-6.259l-16.3-300.445Z" transform="translate(39.523 -241.405)" fill="#999b32"/>
      <path id="Path_545" data-name="Path 545" d="M291.644,440.449C240,456.814,112.358,478.27,112.358,478.27l.726,2.183H311.647Z" transform="translate(-96.997 -187.246)" fill="#7c3552"/>
      <path id="Path_546" data-name="Path 546" d="M303.4,452.685l7.975,19.756H112.812l-.039-.117Z" transform="translate(-96.725 -179.234)" fill="#602540"/>
      <path id="Path_547" data-name="Path 547" d="M232.261,458.889c40.578-23.843,44.006-29.492,51.176-44.345s13.17-45.552-2.229-46.52-43.144,50.68-55.191,49.665S209.841,472.064,232.261,458.889Z" transform="translate(-29.006 -234.674)" fill="#eaddbe"/>
      <path id="Path_548" data-name="Path 548" d="M222.585,416.343c2.474,4.815,12.056,9.784,17.492,4.395,22.749-22.557,25.67-43.258,37.328-49.4,1.289-.678,10.969.925,11.57-.6,4.608,9.674-.131,29.89-5.538,41.1-7.17,14.855-10.6,20.5-51.176,44.347C212.14,468.006,213.407,424.638,222.585,416.343Z" transform="translate(-29.005 -232.887)" fill="#d8c5a0"/>
      <path id="Path_549" data-name="Path 549" d="M265.033,386.674c8.911-16.185,20.684-22.536,20.684-22.536s32-10,42.55,16.91-25.457,110.191-31.639,125.83-13.092,20.727-48,18.182l-29.458-32C252.26,466.511,259.2,397.278,265.033,386.674Z" transform="translate(-27.065 -238.4)" fill="#eaddbe"/>
      <g id="Group_71" data-name="Group 71" transform="translate(192.102 131.557)">
        <path id="Path_550" data-name="Path 550" d="M248.345,443.007c-2.4,18.027,17.992,36.446,25.586,35.858,12.146-.94,28.24-46.144,41.42-84.168a95.353,95.353,0,0,0,5.557-27.762,29.487,29.487,0,0,1,7.36,11.092c10.546,26.911-25.457,110.191-31.639,125.83s-13.092,20.727-48,18.182l-29.458-32C232.694,479.186,241.847,461.2,248.345,443.007Z" transform="translate(-219.167 -366.935)" fill="#d8c5a0"/>
      </g>
      <path id="Path_551" data-name="Path 551" d="M282.978,394.7l-55.641-5.455L171.7,397.97l58.149,3.291,53.487-4.5Z" transform="translate(-58.146 -220.773)" fill="#dbc8a2"/>
      <path id="Path_552" data-name="Path 552" d="M200.285,390.549l8.333-1.307L264.26,394.7l.353,2.064-8.372.7Z" transform="translate(-39.427 -220.773)" fill="#d3bb92"/>
      <path id="Path_553" data-name="Path 553" d="M220.349,336.277l14.183,87.644-55.641,8.728L160.707,354.46Z" transform="translate(-65.341 -255.451)" fill="#eaddbe"/>
      <path id="Path_554" data-name="Path 554" d="M220.349,336.277l-41.458,96.372L160.707,354.46Z" transform="translate(-65.341 -255.451)" fill="#f4e8ce"/>
      <path id="Path_555" data-name="Path 555" d="M193.931,337.7l4.665-1.422,14.183,87.644-5.6.879Z" transform="translate(-43.588 -255.451)" fill="#dbc8a2"/>
      <path id="Path_556" data-name="Path 556" d="M267.753,462.23c34.885-31.594,37.132-34.925,41.132-50.926s3.637-47.278-11.636-45.095-31.64,56-43.641,57.459S248.479,479.686,267.753,462.23Z" transform="translate(-8.411 -235.925)" fill="#eaddbe"/>
      <path id="Path_557" data-name="Path 557" d="M253.608,416.99c7.613-.923,16.984-22.923,26.717-39.444,5.61-9.518-13.286,38.6-25.286,40.058-9.422,1.142-7.206,35,3.506,41.064C246.615,454.961,243.78,418.181,253.608,416.99Z" transform="translate(-8.41 -229.246)" fill="#d8c5a0"/>
      <path id="Path_558" data-name="Path 558" d="M267.578,432.66c34.885-31.594,37.094-37.822,41.1-53.824.386-1.542.728-3.228,1.024-5.011,2.27,9.96,1.4,23.539-.821,32.42-4,16-6.209,22.228-41.094,53.822-16.506,14.949-23.933-25.02-18.191-37.728C252.632,433.053,258.824,440.588,267.578,432.66Z" transform="translate(-8.403 -230.866)" fill="#d8c5a0"/>
      <path id="Path_559" data-name="Path 559" d="M247.388,402.07c-21.273-8.211-65.3-6.827-65.3-6.827l5.524,7.67s51.027,42.815,63.317,38.143C263.716,436.194,256.028,405.4,247.388,402.07Z" transform="translate(-51.345 -216.902)" fill="#ff9566"/>
      <path id="Path_560" data-name="Path 560" d="M279.471,414.405c-11.547-19.761-37.4-37.491-37.4-37.491l-11.694,8.035s26.921,71.882,39,74.534S284.056,422.256,279.471,414.405Z" transform="translate(-19.727 -228.845)" fill="#ffb882"/>
      <path id="Path_561" data-name="Path 561" d="M269.582,431.963c5.792,1.271,9.4-7.233,11.083-17.292,2.74,12.3-.468,44.006-11.289,41.633-12.081-2.653-39-74.534-39-74.534S261.56,430.2,269.582,431.963Z" transform="translate(-19.727 -225.665)" fill="#ff9566"/>
      <g id="Group_72" data-name="Group 72" transform="translate(204.545)">
        <path id="Path_562" data-name="Path 562" d="M227.405,303.421s-.2,1.087-.407,2.878A10.16,10.16,0,0,1,227.405,303.421Z" transform="translate(-226.482 -276.963)" fill="#ce5230"/>
        <path id="Path_563" data-name="Path 563" d="M227.2,316.767a11.475,11.475,0,0,0,1.225,5.3c2.183,4.365,13.91,6,8.183-13.091s10.637-21.548,10.637-21.548-10.364,9,1.637,13.91,6.273-10.637,18.548-12.546,16.092,16.638,16.092,16.638,4.91-11.456,22.092-4.91,6,20.183,6,20.183,16.092,2.729,17.183,24-10.637,13.364-10.637,13.364c1.91,13.092-9.273,19.092-9.273,19.092s-3,5.456-4.91,19.365L255.156,351.8C224.3,360.386,226,326.954,227.2,316.767Z" transform="translate(-226.686 -287.432)" fill="#7a4939"/>
        <path id="Path_564" data-name="Path 564" d="M261.3,340.544c21.728-10.226,41.944-22.824,37.712-44.3-.131-.662-.331-1.292-.495-1.938a31.456,31.456,0,0,1,6.293,1.718c17.183,6.546,6,20.183,6,20.183s16.092,2.729,17.183,24-10.637,13.365-10.637,13.365c1.91,13.092-9.273,19.092-9.273,19.092s-3,5.456-4.91,19.365L254.352,347.3c-16.178,4.5-23.4-2.555-26.439-11.749C234.456,344.838,240.439,350.362,261.3,340.544Z" transform="translate(-225.883 -282.931)" fill="#603428"/>
      </g>
      <path id="Path_565" data-name="Path 565" d="M279.869,337.376l10.91,44.458c-11.11,1.59-21.071,7.559-30,17.456l-5.183-47.731Z" transform="translate(-3.215 -254.732)" fill="#ffb882"/>
      <path id="Path_566" data-name="Path 566" d="M213.341,399.677l13.091-5.82C254.8,401.494,300.62,494.23,300.62,494.23s-11.638,16.364-24.73,16.364H242.8L225.7,430.951l-35.276,76.734-2.909-1.09S206.43,415.678,213.341,399.677Z" transform="translate(-47.785 -217.751)" fill="#7c3552"/>
      <path id="Path_567" data-name="Path 567" d="M226.816,400.461s17.689,11.057,32.451,20.6C280.651,450.6,300.076,489.9,300.076,489.9s-11.638,16.365-24.73,16.365H242.253l-17.092-79.643-35.276,76.734-1.536-.576Z" transform="translate(-47.242 -213.427)" fill="#602540"/>
      <g id="Group_75" data-name="Group 75" transform="translate(28.089 291.859)">
        <path id="Path_568" data-name="Path 568" d="M371.972,465.418h-142.8c-25.27,0-32.534,53.769-7.263,53.769h142.8C351.807,511.949,353.591,473.95,371.972,465.418Z" transform="translate(-63.644 -462.756)" fill="#ceb995"/>
        <path id="Path_569" data-name="Path 569" d="M287.7,463.819H143.223c-28.7-.862-31.865,58.21-3.166,59.074l144.477,0C259.929,522.152,263.094,463.079,287.7,463.819Z" transform="translate(-120.05 -463.809)" fill="#ffb94a"/>
        <g id="Group_73" data-name="Group 73" transform="translate(23.208 0.011)">
          <path id="Path_570" data-name="Path 570" d="M419.513,463.816H136.729l-1.186,5.6H418.327a3.9,3.9,0,0,0,3.766-2.8v0A2.354,2.354,0,0,0,419.513,463.816Z" transform="translate(-133.114 -463.816)" fill="#ffb94a"/>
          <path id="Path_571" data-name="Path 571" d="M417.63,496.576H135.344l-1.269,4.862H416.36c1.752,0,3.457-1.087,3.808-2.431h0C420.519,497.665,419.382,496.576,417.63,496.576Z" transform="translate(-134.075 -442.367)" fill="#ffb94a"/>
        </g>
        <g id="Group_74" data-name="Group 74" transform="translate(158.029 0.009)">
          <path id="Path_572" data-name="Path 572" d="M367.845,463.815H216.967l-.632,5.6H367.213c.935,0,1.833-1.253,2.009-2.8h0C369.4,465.068,368.78,463.815,367.845,463.815Z" transform="translate(-215.038 -463.815)" fill="#ef7335"/>
          <path id="Path_573" data-name="Path 573" d="M366.841,496.576H216.228l-.677,4.862H366.164c.935,0,1.843-1.089,2.03-2.431h0C368.381,497.665,367.776,496.576,366.841,496.576Z" transform="translate(-215.551 -442.365)" fill="#ef7335"/>
        </g>
        <path id="Path_574" data-name="Path 574" d="M291.656,466.492H147.179c-28.7-.735-31.867,49.574-3.166,50.311l144.475,0C253.54,514.541,256.705,464.232,291.656,466.492Z" transform="translate(-117.46 -462.101)" fill="#ef7335"/>
        <path id="Path_575" data-name="Path 575" d="M281.663,467.588l-127.609.629c-25.68-.688-28.515,46.318-2.833,47H280.5C258.482,514.632,259.647,467,281.663,467.588Z" transform="translate(-111.362 -461.339)" fill="#ddcba6"/>
        <path id="Path_576" data-name="Path 576" d="M258.707,471.424H157.177c-20.168-.52-22.394,35.046-2.224,35.565l101.528,0C239.19,506.544,241.415,470.979,258.707,471.424Z" transform="translate(-106.403 -458.827)" fill="#eaddbe"/>
      </g>
      <g id="Group_77" data-name="Group 77" transform="translate(6.996 349.978)">
        <path id="Path_577" data-name="Path 577" d="M320.8,498.932H116.863c-12.639,0-12.8,66.792-.162,66.792H320.636C304.293,565.724,304.456,498.932,320.8,498.932Z" transform="translate(-107.303 -498.932)" fill="#5e85bc"/>
        <path id="Path_578" data-name="Path 578" d="M390.488,503.681H244.2c-25.888,0-26.011,51.077-.124,51.077H390.363C376.162,547.882,372.818,511.784,390.488,503.681Z" transform="translate(-30.425 -495.823)" fill="#ddcba6"/>
        <path id="Path_579" data-name="Path 579" d="M263.152,540.578c-20.021,0-19.926-30.758.1-30.758H365.78c-3.971,9.146-3.359,21.738.589,30.758Z" transform="translate(-15.062 -491.803)" fill="#eaddbe"/>
        <path id="Path_580" data-name="Path 580" d="M390.76,498.932H222.114l-.03,11.787,168.648,0c2.166,0,3.928-2.639,3.937-5.894h0C394.677,501.571,392.926,498.932,390.76,498.932Z" transform="translate(-32.151 -498.932)" fill="#4b6f9b"/>
        <path id="Path_581" data-name="Path 581" d="M390.68,532.173H222.032L222,543.96l168.648,0c2.166,0,3.928-2.639,3.937-5.894h0C394.6,534.812,392.846,532.173,390.68,532.173Z" transform="translate(-32.203 -477.168)" fill="#4b6f9b"/>
        <path id="Path_582" data-name="Path 582" d="M250.2,565.724H222.09c-9.682-12.6-9.581-54.188.162-66.792h28.106C234.016,498.932,233.854,565.724,250.2,565.724Z" transform="translate(-36.863 -498.932)" fill="#4b6f9b"/>
        <g id="Group_76" data-name="Group 76" transform="translate(18.034 6.156)" style="mix-blend-mode: overlay;isolation: isolate">
          <path id="Path_583" data-name="Path 583" d="M118.2,530.141c0-12.68,2.072-27.488,7.915-27.488h145.4v2.437c-4.387,0-7.7,10.746-7.7,25,0,14.031,3.26,24.609,7.582,24.609v2.437H126C120.243,557.133,118.2,542.594,118.2,530.141Zm143.421-.055c0-10.188,1.7-20.444,5.408-25H126.116c-3.151,0-5.715,11.237-5.715,25.051,0,15.371,2.848,24.555,5.6,24.555H266.939C263.3,550.191,261.622,540.1,261.622,530.086Z" transform="translate(-118.201 -502.652)" fill="#ddcba6"/>
        </g>
      </g>
      <path id="Path_584" data-name="Path 584" d="M173.154,466.661H200.97s3.887-4.5-1.023-6.955S173.154,466.661,173.154,466.661Z" transform="translate(-57.191 -174.904)" fill="#f4e6c9"/>
      <path id="Path_585" data-name="Path 585" d="M103.075,451.052l13.072,24.553s5.8,1.315,5.658-4.17S103.075,451.052,103.075,451.052Z" transform="translate(-103.075 -180.303)" fill="#f4e6c9"/>
      <path id="Path_586" data-name="Path 586" d="M264.37,419.266c-10.623-2.313-14.206-13.451-14.355-27.389a22.413,22.413,0,0,1,5.257-3.088,55.713,55.713,0,0,1,7.322-6.405l-3.348-30.825,24.275-14.183,10.91,44.458c-.071.01-.139.03-.21.041a26.549,26.549,0,0,1,5.251,3.338c3.278.892,5.613,3.74,7.2,7.676C289.969,396.189,279.617,422.587,264.37,419.266Z" transform="translate(-6.867 -254.732)" fill="#c94343" opacity="0.6" style="mix-blend-mode: multiply;isolation: isolate"/>
      <path id="Path_587" data-name="Path 587" d="M284.215,319.109c8.16,32.641,3,63.823,3,63.823s-22.092,13.364-35.731,13.637c0,0-12.546-52.095-7.637-72.823S282.579,312.563,284.215,319.109Z" transform="translate(-11.651 -271.923)" fill="#ffb882"/>
      <path id="Path_588" data-name="Path 588" d="M266.78,361.033c-2.464-29.173-4.3-48.092,4.625-43.761s5.861,37.152,5.861,37.152Z" transform="translate(2.784 -268.298)" fill="#603428"/>
      <path id="Path_589" data-name="Path 589" d="M244.364,335.954c-.238-2.02.336-3.748,1.282-3.861s1.908,1.435,2.146,3.455-.338,3.746-1.284,3.859S244.6,337.973,244.364,335.954Z" transform="translate(-10.602 -258.194)" fill="#633d37"/>
      <path id="Path_590" data-name="Path 590" d="M253.5,334.656c-.238-2.02.338-3.748,1.284-3.861s1.906,1.435,2.145,3.455-.338,3.748-1.284,3.859S253.734,336.674,253.5,334.656Z" transform="translate(-4.624 -259.044)" fill="#633d37"/>
      <path id="Path_591" data-name="Path 591" d="M237.408,338.427l4.13,14.942,32.863-3.4.718-13.419,24.063-3.488,5.747,7.206,4.849-4.3-7.542-5.48Z" transform="translate(-15.122 -259.238)" fill="#eaddbe"/>
      <path id="Path_592" data-name="Path 592" d="M248.586,335.567l-9.92,1.329,3.17,11.147,7.261-1.023Z" transform="translate(-14.298 -255.916)" fill="#ffb882"/>
      <path id="Path_593" data-name="Path 593" d="M248.586,335.428l-9.92,1.33,3.17,11.147,7.261-1.023Z" transform="translate(-14.298 -256.007)" fill="#ffb882"/>
      <path id="Path_594" data-name="Path 594" d="M248.69,346.578l-2.514.354-7.336-10.559,3.112-.417Z" transform="translate(-14.184 -255.661)" fill="#ffc69f"/>
      <path id="Path_595" data-name="Path 595" d="M270.036,335.943c2.849-7.782,13.729-6.078,11.812-.291s-10.01,16.427-12.124,14.717S269.257,338.075,270.036,335.943Z" transform="translate(5.357 -259.106)" fill="#ffb882"/>
      <path id="Path_596" data-name="Path 596" d="M247.849,336.557c-.323-.2-5.112,19.868-5.4,21.617s11.332-1.749,11.332-1.749S248.744,337.113,247.849,336.557Z" transform="translate(-11.823 -255.269)" fill="#ffb882"/>
      <path id="Path_597" data-name="Path 597" d="M271.1,336.308c1.632-4.455,7.858-3.478,6.76-.165s-5.729,9.4-6.938,8.423S270.654,337.528,271.1,336.308Z" transform="translate(6.432 -257.397)" fill="#db5b3e"/>
      <path id="Path_598" data-name="Path 598" d="M270.755,338.279c1.038-2.833,5-2.212,4.3-.106s-3.644,5.979-4.413,5.355S270.47,339.055,270.755,338.279Z" transform="translate(6.39 -255.391)" fill="#ffb882"/>
      <path id="Path_599" data-name="Path 599" d="M246.762,336.21l3.375,12.068,15.647-2.045.921-12.272Z" transform="translate(-8.997 -256.968)" fill="#ffb882"/>
      <path id="Path_600" data-name="Path 600" d="M247.966,335.482l6.678-.753,10.045,11.04-6.581.86Z" transform="translate(-8.209 -256.465)" fill="#ffc69f"/>
      <path id="Path_601" data-name="Path 601" d="M247.849,336.557a6.934,6.934,0,0,1,.887,2.062c-1.517,5.778-4.132,16.844-4.34,18.123s5.83-.218,9.172-1.133c.136.518.215.817.215.817s-11.616,3.5-11.332,1.749S247.526,336.355,247.849,336.557Z" transform="translate(-11.823 -255.269)" fill="#ff9566"/>
      <path id="Path_602" data-name="Path 602" d="M243.953,339.689c-1.047.1-2.08-1.34-2.624-3.434l4.551-.611C245.775,337.891,245.029,339.587,243.953,339.689Z" transform="translate(-12.554 -255.865)" fill="#633d37"/>
      <path id="Path_603" data-name="Path 603" d="M255.084,339.5c-1.243.091-2.423-1.891-2.83-4.577l4.946-.559C257.236,337.169,256.354,339.4,255.084,339.5Z" transform="translate(-5.401 -256.704)" fill="#633d37"/>
      <path id="Path_604" data-name="Path 604" d="M270.487,333.111c-9.758.568-21.005-1.5-21.005-1.5l-.836-8.813s19.145,3.311,20.818,4.946S270.487,333.111,270.487,333.111Z" transform="translate(-7.764 -264.278)" fill="#7a4939"/>
      <path id="Path_605" data-name="Path 605" d="M240.2,335.308c5.709-.377,11.891-3.506,11.891-3.506l-.8-8.8s-10.559,5.116-11.285,6.894S240.2,335.308,240.2,335.308Z" transform="translate(-13.602 -264.143)" fill="#7a4939"/>
      <path id="Path_606" data-name="Path 606" d="M248.137,352.561l17.491-4.681s.751,10.709-7.994,12.4S248.137,352.561,248.137,352.561Z" transform="translate(-8.097 -247.854)" fill="#472922"/>
      <path id="Path_607" data-name="Path 607" d="M249.772,355.4a10.1,10.1,0,0,1-.884-3.146l15.007-4.018a14.7,14.7,0,0,1-.286,3.46Z" transform="translate(-7.605 -247.62)" fill="#fff6e3"/>
      <path id="Path_608" data-name="Path 608" d="M181.054,374.858c2.189-.362,3.444-3.806,2.8-7.691a10.422,10.422,0,0,0-2.007-4.809c1.541.894,2.888,3.159,3.356,5.989.642,3.885-.612,7.329-2.8,7.69a3.465,3.465,0,0,1-3.119-1.57A2.655,2.655,0,0,0,181.054,374.858Z" transform="translate(-53.179 -238.375)" fill="#dbc8a2"/>
      <path id="Path_609" data-name="Path 609" d="M180.723,359.92c2.113-.349,4.3,1.617,5.72,4.736-1.347-2-3.041-3.169-4.7-2.9-2.977.493-4.653,5.343-3.745,10.834a17.1,17.1,0,0,0,1.312,4.316,15.706,15.706,0,0,1-2.335-6.156C176.07,365.261,177.747,360.411,180.723,359.92Z" transform="translate(-54.849 -239.997)" fill="#d3bb92"/>
      <path id="Path_610" data-name="Path 610" d="M215.674,378.972c-.587,4.848.905,7.916,2.275,8.462s6.03-1.274,6.809-2.821S216.192,374.695,215.674,378.972Z" transform="translate(-29.438 -228.285)" fill="#ff9566"/>
      <path id="Path_611" data-name="Path 611" d="M216.54,376.79c.409,9.1,1.534,9.92,3.273,10.739s7.158-.308,7.772-1.739-.41-5.011-1.842-4.7a24.95,24.95,0,0,1-3.17.409Z" transform="translate(-28.785 -228.926)" fill="#ffb882"/>
      <path id="Path_612" data-name="Path 612" d="M219.908,376.122c2.406-3.682,21.053-3.528,30.977,3.682l-10.124,10.125c-3.308-5.37-11.98-4.91-17.395-4.45S217.5,379.8,219.908,376.122Z" transform="translate(-27.49 -230.917)" fill="#ffb882"/>
      <path id="Path_613" data-name="Path 613" d="M218.888,377.856c.41,9.1,1.536,9.92,3.273,10.739s7.158-.308,7.772-1.739-.409-5.011-1.84-4.7a24.624,24.624,0,0,1-3.17.409Z" transform="translate(-27.248 -228.228)" fill="#ffb882"/>
      <path id="Path_614" data-name="Path 614" d="M228.62,374.053c-6.262,1.173-10.729,3.533-12.813,5.818s-4.668,8.115-4.754,9.447,3.5,2.977,4.266,1.228,3.166-6.988,3.816-7.2,7.029-2.924,7.332-2.881S228.62,374.053,228.62,374.053Z" transform="translate(-32.378 -230.718)" fill="#ffb882"/>
      <path id="Path_615" data-name="Path 615" d="M198.87,407.69c-13.959-5.982-21.475-3.374-24.851-13.039l21.169.819Z" transform="translate(-56.625 -217.231)" fill="#ff9566"/>
      <path id="Path_616" data-name="Path 616" d="M183.243,402.007c-4.7-2.659-5.83-6.444-5.83-8.9s-3.783-3.068-3.885-.716a12.76,12.76,0,0,0,1.84,6.751C176.391,400.678,183.243,402.007,183.243,402.007Z" transform="translate(-56.952 -219.678)" fill="#ff9566"/>
      <path id="Path_617" data-name="Path 617" d="M186.458,402.254c-4.7-2.659-5.83-6.442-5.83-8.9s-3.784-3.068-3.887-.715a12.77,12.77,0,0,0,1.842,6.75C179.605,400.925,186.458,402.254,186.458,402.254Z" transform="translate(-54.848 -219.516)" fill="#ff9566"/>
      <path id="Path_618" data-name="Path 618" d="M189.856,402.563c-4.7-2.659-5.83-6.442-5.83-8.9s-3.784-3.068-3.885-.715a12.754,12.754,0,0,0,1.84,6.75C183,401.234,189.856,402.563,189.856,402.563Z" transform="translate(-52.622 -219.313)" fill="#ff9566"/>
    </g>
  </g>
</svg>
