<svg xmlns="http://www.w3.org/2000/svg" width="696.653" height="771.115" viewBox="0 0 696.653 771.115">
  <g id="Group_99" data-name="Group 99" transform="translate(-317.096 -49.263)">
    <path id="Path_716" data-name="Path 716" d="M646.466,127.078H372.408L333.706,621H643.263Z" transform="translate(42.558 199.373)" fill="#b7bf47"/>
    <path id="Path_717" data-name="Path 717" d="M612.552,401.482,509.657,127.1H466.785l16.645,49.43L468.3,173.5,454.679,416.614H407.267l-25.219,95.329H361.872l-18.158,60.526-7.566,47.917H640.293Z" transform="translate(48.816 199.42)" fill="#999b32"/>
    <g id="Group_90" data-name="Group 90" transform="translate(407.159 341.342)" opacity="0.58" style="mix-blend-mode: overlay;isolation: isolate">
      <path id="Path_718" data-name="Path 718" d="M611.265,593.178l-268.886-1.446,27.108-460.474,244.667,2.273Zm-264.8-5.457,261,1.411,2.907-451.757L373.035,135.18Z" transform="translate(-342.379 -131.258)" fill="#fff9f1"/>
    </g>
    <path id="Path_719" data-name="Path 719" d="M416.561,127.078H347.333L317.1,621h72.668Z" transform="translate(0 199.373)" fill="#a5a53a"/>
    <path id="Path_720" data-name="Path 720" d="M376.395,148.328h-33.87L321.678,496.915h35.553Z" transform="translate(11.74 253.819)" fill="#fff9f1" opacity="0.42" style="mix-blend-mode: overlay;isolation: isolate"/>
    <path id="Path_721" data-name="Path 721" d="M362.529,127.077,335.929,621h10.289l26.8-493.928Z" transform="translate(48.253 199.373)" fill="#999b32"/>
    <path id="Path_722" data-name="Path 722" d="M494.7,49.263H595.575c29.915,0,53.871,33.385,52.827,73.623l-.534,20.5c-1,38.293-24.355,68.646-52.827,68.646H495.229c-28.472,0-51.83-30.353-52.827-68.646l-.534-20.5C440.824,82.648,464.78,49.263,494.7,49.263Z" transform="translate(319.602 0)" fill="#b7bf47"/>
    <path id="Path_723" data-name="Path 723" d="M465.094,166.353l1.313-78.793,43.474,3.555Z" transform="translate(379.196 98.124)" fill="#b7bf47"/>
    <path id="Path_724" data-name="Path 724" d="M446.484,190.248c84.9,26.905,294.747,62.178,294.747,62.178l-1.2,3.591H413.6Z" transform="translate(247.265 361.226)" fill="#7c3552"/>
    <path id="Path_725" data-name="Path 725" d="M426.712,199.593,413.6,232.071H740.036l.064-.192Z" transform="translate(247.265 385.169)" fill="#602540"/>
    <path id="Path_726" data-name="Path 726" d="M488.133,284.33c-66.709-39.2-72.348-48.485-84.131-72.9s-21.654-74.887,3.662-76.476,70.93,83.315,90.732,81.648S524.991,305.988,488.133,284.33Z" transform="translate(191.467 219.49)" fill="#995882"/>
    <path id="Path_727" data-name="Path 727" d="M504.032,211.982c-4.064,7.915-19.82,16.087-28.757,7.228-37.4-37.086-42.2-71.119-61.365-81.207-2.119-1.115-18.032,1.521-19.018-.99-7.577,15.9.21,49.137,9.1,67.56,11.787,24.419,17.426,33.705,84.135,72.9C521.2,296.915,519.118,225.622,504.032,211.982Z" transform="translate(191.473 224.83)" fill="#773d65"/>
    <path id="Path_728" data-name="Path 728" d="M479.884,170.62c-14.648-26.606-34-37.05-34-37.05s-52.613-16.439-69.95,27.8,41.852,181.154,52.015,206.862,21.523,34.076,78.916,29.89l48.428-52.61C500.883,301.868,489.481,188.053,479.884,170.62Z" transform="translate(142.646 208.353)" fill="#995882"/>
    <g id="Group_91" data-name="Group 91" transform="translate(515.416 351.488)">
      <path id="Path_729" data-name="Path 729" d="M507.32,259.17c3.95,29.634-29.576,59.916-42.062,58.95-19.966-1.546-46.426-75.86-68.094-138.372-5.942-17.145-8.677-32.455-9.133-45.642a48.465,48.465,0,0,0-12.1,18.238c-17.337,44.242,41.852,181.154,52.015,206.862s21.523,34.076,78.916,29.89l48.428-52.61C533.05,318.647,518,289.085,507.32,259.17Z" transform="translate(-372.77 -134.106)" fill="#773d65"/>
    </g>
    <path id="Path_730" data-name="Path 730" d="M409.32,160.11l91.474-8.968,91.473,14.348-95.6,5.411-87.931-7.4Z" transform="translate(234.807 261.031)" fill="#dbc8a2"/>
    <path id="Path_731" data-name="Path 731" d="M514.494,153.291l-13.7-2.149L409.32,160.11l-.581,3.394,13.764,1.158Z" transform="translate(234.807 261.031)" fill="#d3bb92"/>
    <path id="Path_732" data-name="Path 732" d="M457.9,110.693,434.582,254.779l91.473,14.348,29.893-128.541Z" transform="translate(301.019 157.395)" fill="#eaddbe"/>
    <path id="Path_733" data-name="Path 733" d="M441.128,110.693l68.157,158.434,29.893-128.541Z" transform="translate(317.79 157.395)" fill="#f4e8ce"/>
    <path id="Path_734" data-name="Path 734" d="M465.568,113.032l-7.67-2.339L434.582,254.779l9.212,1.445Z" transform="translate(301.019 157.395)" fill="#dbc8a2"/>
    <path id="Path_735" data-name="Path 735" d="M444.16,291.5c-57.347-51.94-61.041-57.415-67.617-83.722s-5.981-77.723,19.129-74.136,52.015,92.071,71.745,94.465S475.849,320.2,444.16,291.5Z" transform="translate(143.23 215.749)" fill="#995882"/>
    <path id="Path_736" data-name="Path 736" d="M432.3,208.152c-12.517-1.517-27.92-37.688-43.925-64.846-9.219-15.649,21.843,63.46,41.57,65.854,15.492,1.877,11.848,57.547-5.763,67.51C443.794,270.576,448.453,210.108,432.3,208.152Z" transform="translate(178.348 235.709)" fill="#773d65"/>
    <path id="Path_737" data-name="Path 737" d="M444.434,236.09c-57.351-51.94-60.984-62.178-67.56-88.484-.634-2.536-1.2-5.308-1.685-8.236-3.733,16.372-2.3,38.7,1.35,53.294,6.576,26.307,10.206,36.544,67.556,88.484,27.136,24.575,39.344-41.132,29.9-62.024C469,236.735,458.825,249.124,444.434,236.09Z" transform="translate(143.234 230.869)" fill="#773d65"/>
    <path id="Path_738" data-name="Path 738" d="M434.389,167.026c34.973-13.5,107.36-11.224,107.36-11.224l-9.08,12.61S448.781,238.8,428.576,231.12C407.549,223.127,420.187,172.508,434.389,167.026Z" transform="translate(257.066 272.6)" fill="#ff9566"/>
    <path id="Path_739" data-name="Path 739" d="M404.445,158.139c-16.967,18.694-21.12,55.05-7.27,75.129s32.2,14.2,36.7,2.422-7.961-71.667-7.961-71.667Z" transform="translate(183.874 278.958)" fill="#fff297"/>
    <path id="Path_740" data-name="Path 740" d="M395.3,203.364c18.983-32.49,61.49-61.636,61.49-61.636l19.225,13.209S431.762,273.111,411.9,277.468,387.766,216.27,395.3,203.364Z" transform="translate(191.427 236.91)" fill="#ffb882"/>
    <path id="Path_741" data-name="Path 741" d="M411.556,227.953c-9.522,2.091-15.449-11.89-18.22-28.43-4.506,20.219.769,72.347,18.555,68.443,19.866-4.357,64.122-122.531,64.122-122.531S424.743,225.061,411.556,227.953Z" transform="translate(191.432 246.411)" fill="#ff9566"/>
    <path id="Path_742" data-name="Path 742" d="M397.887,111.533l-17.936,73.088c18.267,2.615,34.642,12.428,49.322,28.7l8.521-78.471Z" transform="translate(161.045 159.546)" fill="#ffb882"/>
    <path id="Path_743" data-name="Path 743" d="M539.467,164.231l-21.523-9.564c-46.632,12.553-121.965,165.01-121.965,165.01s19.132,26.9,40.655,26.9h54.408l28.1-130.934L577.133,341.8l4.784-1.8S550.826,190.538,539.467,164.231Z" transform="translate(202.112 270.062)" fill="#7c3552"/>
    <path id="Path_744" data-name="Path 744" d="M516.419,159.71s-29.081,18.178-53.351,33.873c-35.155,48.563-67.09,113.173-67.09,113.173s19.132,26.9,40.655,26.9h54.4l28.1-130.934,57.992,126.15,2.522-.948Z" transform="translate(202.112 282.983)" fill="#602540"/>
    <g id="Group_94" data-name="Group 94" transform="translate(454.248 615.026)">
      <path id="Path_745" data-name="Path 745" d="M357.405,209.317H592.166c41.546,0,53.486,88.4,11.944,88.4H369.345C390.555,285.814,387.623,223.341,357.405,209.317Z" transform="translate(-350.969 -204.941)" fill="#ceb995"/>
      <path id="Path_746" data-name="Path 746" d="M422.33,208.1H659.848c47.181-1.421,52.389,95.694,5.2,97.115H427.534C467.983,304,462.778,206.886,422.33,208.1Z" transform="translate(-184.621 -208.089)" fill="#ffb94a"/>
      <g id="Group_92" data-name="Group 92" transform="translate(0.001 0.015)">
        <path id="Path_747" data-name="Path 747" d="M359.932,208.093H824.823l1.948,9.2H361.881c-2.882,0-5.653-2.059-6.191-4.6h0C355.152,210.155,357.05,208.093,359.932,208.093Z" transform="translate(-355.598 -208.093)" fill="#ffb94a"/>
        <path id="Path_748" data-name="Path 748" d="M361.2,233.112H825.277l2.088,7.993H363.29c-2.882,0-5.685-1.792-6.259-4h0C356.454,234.9,358.324,233.112,361.2,233.112Z" transform="translate(-352.195 -143.99)" fill="#ffb94a"/>
      </g>
      <g id="Group_93" data-name="Group 93" transform="translate(0 0.012)">
        <path id="Path_749" data-name="Path 749" d="M357.909,208.092l248.04,0,1.04,9.2H358.949c-1.539,0-3.017-2.059-3.3-4.6h0C355.359,210.155,356.374,208.092,357.909,208.092Z" transform="translate(-355.598 -208.092)" fill="#ef7335"/>
        <path id="Path_750" data-name="Path 750" d="M358.592,233.112h247.6l1.115,7.993-247.606,0c-1.539,0-3.031-1.788-3.341-3.993h0C356.055,234.9,357.053,233.112,358.592,233.112Z" transform="translate(-353.784 -143.987)" fill="#ef7335"/>
      </g>
      <path id="Path_751" data-name="Path 751" d="M419.309,210.2H656.827c47.184-1.211,52.389,81.5,5.2,82.71l-237.518,0C481.971,289.193,476.767,206.484,419.309,210.2Z" transform="translate(-192.361 -202.984)" fill="#ef7335"/>
      <path id="Path_752" data-name="Path 752" d="M421.106,210.978l209.786,1.033c42.219-1.129,46.878,76.148,4.659,77.278H423.022C459.218,288.32,457.3,210.013,421.106,210.978Z" transform="translate(-187.757 -200.707)" fill="#ddcba6"/>
      <path id="Path_753" data-name="Path 753" d="M429.412,213.909H596.324c33.157-.855,36.819,57.614,3.658,58.469H433.07C461.5,271.648,457.838,213.175,429.412,213.909Z" transform="translate(-166.475 -193.201)" fill="#eaddbe"/>
    </g>
    <g id="Group_96" data-name="Group 96" transform="translate(406.272 710.571)">
      <path id="Path_754" data-name="Path 754" d="M410.907,234.911H746.174c20.774,0,21.042,109.807.264,109.807H411.17C438.036,344.718,437.773,234.911,410.907,234.911Z" transform="translate(-165.912 -234.911)" fill="#5e85bc"/>
      <path id="Path_755" data-name="Path 755" d="M343.264,238.538h240.5c42.557,0,42.764,83.967.2,83.967h-240.5C366.813,311.2,372.31,251.861,343.264,238.538Z" transform="translate(-339.225 -225.618)" fill="#ddcba6"/>
      <path id="Path_756" data-name="Path 756" d="M516.992,293.794c32.914,0,32.757-50.568-.16-50.568H348.27c6.53,15.036,5.521,35.736-.965,50.568Z" transform="translate(-328.871 -213.607)" fill="#eaddbe"/>
      <path id="Path_757" data-name="Path 757" d="M348.556,234.911H625.81l.046,19.378H348.6c-3.562,0-6.458-4.339-6.472-9.689h0C342.119,239.25,344.994,234.911,348.556,234.911Z" transform="translate(-342.13 -234.911)" fill="#4b6f9b"/>
      <path id="Path_758" data-name="Path 758" d="M348.615,260.3H625.868l.05,19.378H348.661c-3.559,0-6.458-4.339-6.469-9.689h0C342.178,264.636,345.056,260.3,348.615,260.3Z" transform="translate(-341.971 -169.868)" fill="#4b6f9b"/>
      <path id="Path_759" data-name="Path 759" d="M411.17,344.718h46.208c15.916-20.725,15.748-89.086-.267-109.807h-46.2C437.773,234.911,438.036,344.718,411.17,344.718Z" transform="translate(-165.912 -234.911)" fill="#4b6f9b"/>
      <g id="Group_95" data-name="Group 95" transform="translate(314.279 10.12)" style="mix-blend-mode: overlay;isolation: isolate">
        <path id="Path_760" data-name="Path 760" d="M669.585,327.319H430.546v-4.007c7.1,0,12.464-17.394,12.464-40.459,0-23.428-5.439-41.093-12.653-41.093v-4.007H669.4c9.6,0,13.009,24.344,13.009,45.193C682.4,303.413,679.049,327.319,669.585,327.319Zm-231.7-4.007h231.7c4.524,0,9.208-15.1,9.208-40.366,0-22.712-4.218-41.186-9.4-41.186H437.734c6.091,7.481,8.891,24.344,8.891,41.093C446.625,299.324,443.868,315.906,437.884,323.312Z" transform="translate(-430.357 -237.752)" fill="#ddcba6"/>
      </g>
    </g>
    <path id="Path_761" data-name="Path 761" d="M493.768,216.746H448.037s-6.39-7.395,1.681-11.431S493.768,216.746,493.768,216.746Z" transform="translate(329.341 398.11)" fill="#f4e6c9"/>
    <path id="Path_762" data-name="Path 762" d="M534.816,198.346l-21.491,40.363s-9.532,2.166-9.3-6.857S534.816,198.346,534.816,198.346Z" transform="translate(478.932 381.975)" fill="#f4e6c9"/>
    <path id="Path_763" data-name="Path 763" d="M443.854,246.158c17.465-3.8,23.354-22.114,23.6-45.029a36.8,36.8,0,0,0-8.642-5.072,91.983,91.983,0,0,0-12.036-10.533l5.5-50.675-39.907-23.314-17.936,73.088c.118.014.228.05.346.068a43.413,43.413,0,0,0-8.631,5.489c-5.389,1.464-9.23,6.145-11.848,12.617C401.767,208.221,418.787,251.619,443.854,246.158Z" transform="translate(146.564 159.546)" fill="#c94343" opacity="0.6" style="mix-blend-mode: multiply;isolation: isolate"/>
    <path id="Path_764" data-name="Path 764" d="M458.754,151.161c-3.6-.595-5.66-6.255-4.606-12.642a17.189,17.189,0,0,1,3.3-7.908c-2.533,1.471-4.748,5.194-5.514,9.846-1.058,6.387,1,12.047,4.6,12.642,1.785.3,3.612-.716,5.129-2.583A4.374,4.374,0,0,1,458.754,151.161Z" transform="translate(344.771 208.427)" fill="#dbc8a2"/>
    <path id="Path_765" data-name="Path 765" d="M461.337,128.784c-3.473-.573-7.064,2.657-9.4,7.787,2.216-3.295,5-5.211,7.723-4.759,4.894.809,7.651,8.781,6.159,17.811a28.116,28.116,0,0,1-2.159,7.092,25.879,25.879,0,0,0,3.84-10.12C468.989,137.569,466.232,129.593,461.337,128.784Z" transform="translate(345.475 203.578)" fill="#d3bb92"/>
    <path id="Path_766" data-name="Path 766" d="M437.512,144.36c.969,7.972-1.485,13.013-3.74,13.91s-9.914-2.095-11.2-4.638S436.661,137.328,437.512,144.36Z" transform="translate(270.065 238.581)" fill="#ff9566"/>
    <path id="Path_767" data-name="Path 767" d="M439.288,141.633c-.67,14.965-2.522,16.308-5.379,17.654s-11.769-.506-12.778-2.857.673-8.239,3.028-7.737a40.6,40.6,0,0,0,5.211.673Z" transform="translate(265.792 236.667)" fill="#ffb882"/>
    <path id="Path_768" data-name="Path 768" d="M460.491,143.211c-3.954-6.052-34.61-5.8-50.925,6.052l16.642,16.646c5.439-8.827,19.7-8.072,28.6-7.313S464.448,149.263,460.491,143.211Z" transform="translate(236.924 230.718)" fill="#ffb882"/>
    <path id="Path_769" data-name="Path 769" d="M437.5,142.447c-.673,14.965-2.522,16.308-5.379,17.654s-11.769-.506-12.781-2.857.673-8.239,3.028-7.734a41.05,41.05,0,0,0,5.211.67Z" transform="translate(261.196 238.752)" fill="#ffb882"/>
    <path id="Path_770" data-name="Path 770" d="M422.1,139.543c10.295,1.927,17.64,5.806,21.063,9.564s7.677,13.34,7.819,15.527-5.756,4.9-7.014,2.02-5.2-11.484-6.273-11.844-11.556-4.805-12.054-4.734S422.1,139.543,422.1,139.543Z" transform="translate(269.03 231.312)" fill="#ffb882"/>
    <path id="Path_771" data-name="Path 771" d="M447.018,176.71c22.947-9.835,35.3-5.546,40.854-21.437l-34.8,1.347Z" transform="translate(332.882 271.615)" fill="#ff9566"/>
    <path id="Path_772" data-name="Path 772" d="M454.381,170.655c7.733-4.371,9.582-10.594,9.582-14.626s6.219-5.044,6.39-1.179a20.971,20.971,0,0,1-3.028,11.1C465.645,168.468,454.381,170.655,454.381,170.655Z" transform="translate(351.747 264.305)" fill="#ff9566"/>
    <path id="Path_773" data-name="Path 773" d="M451.926,170.844c7.737-4.371,9.586-10.594,9.586-14.63s6.22-5.04,6.387-1.176a20.969,20.969,0,0,1-3.024,11.1C463.193,168.657,451.926,170.844,451.926,170.844Z" transform="translate(345.457 264.789)" fill="#ff9566"/>
    <path id="Path_774" data-name="Path 774" d="M449.33,171.081c7.737-4.374,9.586-10.594,9.586-14.63s6.22-5.044,6.387-1.176a20.936,20.936,0,0,1-3.024,11.1C460.6,168.894,449.33,171.081,449.33,171.081Z" transform="translate(338.806 265.393)" fill="#ff9566"/>
    <g id="Group_98" data-name="Group 98" transform="translate(537.484 181.826)">
      <path id="Path_775" data-name="Path 775" d="M391.151,216.816c-18.342-40.926-4.488-69.206-4.488-69.206s-16.311-14.462-1.446-34.517,42.543-23.311,53.949-16.137c0,0,29.281-18.238,44.538-6.594s2.038,26.463,2.038,26.463,12.133,10.5,8.15,24.953-27.61,12.738-27.61,12.738Z" transform="translate(-378.965 -86.477)" fill="#93402c"/>
      <path id="Path_776" data-name="Path 776" d="M465.921,141.439c-37.848-4.054-66.976-21.847-65.06-39.739.5-4.645,3.074-8.827,7.228-12.421a48.531,48.531,0,0,0-22.873,16.639c-14.865,20.055,1.446,34.517,1.446,34.517s-13.853,28.28,4.488,69.206l75.129-62.3s14.245,1,22.474-5.325A139.327,139.327,0,0,1,465.921,141.439Z" transform="translate(-378.965 -79.301)" fill="#723125"/>
      <path id="Path_777" data-name="Path 777" d="M389.587,113.667c-8.973,16.938-5.664,85.706-3.886,91.85s27.3,22.947,38.023,21.387,22.623-11.556,25.334-16.674,12.3-89.685,10.708-95-21.017-18.488-31.593-18.267S392.3,108.549,389.587,113.667Z" transform="translate(-367.064 -59.605)" fill="#ffb882"/>
      <path id="Path_778" data-name="Path 778" d="M393.858,96.933c19.45,3.523,5.194,76.148,5.194,76.148l-12.859-3.751S374.438,93.414,393.858,96.933Z" transform="translate(-369.479 -59.991)" fill="#723125"/>
      <path id="Path_779" data-name="Path 779" d="M396.422,116.445c-2.283-9.821-16.122-5.436-14.216,4.168s5.261,28.344,10.12,24.761S397.836,122.53,396.422,116.445Z" transform="translate(-371.123 -23.894)" fill="#ffb882"/>
      <path id="Path_780" data-name="Path 780" d="M390.947,116.159c-1.261-5.432-8.923-3.006-7.869,2.308s2.907,15.681,5.6,13.7S391.727,119.525,390.947,116.159Z" transform="translate(-368.68 -18.282)" fill="#db5b3e"/>
      <path id="Path_781" data-name="Path 781" d="M389.389,117.819c-.9-3.915-6.426-2.166-5.667,1.66s2.091,11.292,4.029,9.867S389.952,120.241,389.389,117.819Z" transform="translate(-366.962 -11.834)" fill="#ffb882"/>
      <g id="Group_97" data-name="Group 97" transform="translate(35.746 63.84)">
        <path id="Path_782" data-name="Path 782" d="M408.771,118.734c.353-4.5-1.4-8.239-3.911-8.335s-4.809,3.48-5.154,7.99c-.342,4.492,1.4,8.232,3.9,8.328C406.12,126.82,408.432,123.251,408.771,118.734Z" transform="translate(-361.682 -89.033)" fill="#4f3131"/>
        <path id="Path_783" data-name="Path 783" d="M402.013,110.649c3.234-1.82,11.962,34.069,10.6,38.546-.673,2.226-16.407-1.165-16.407-1.165S401.425,110.97,402.013,110.649Z" transform="translate(-370.527 -88.556)" fill="#ffb882"/>
        <path id="Path_784" data-name="Path 784" d="M402.49,110.908c3.113,7.359,9.807,33.053,8.635,36.776-.531,1.688-10.373.007-14.43-.862-.1.794-.175,1.254-.175,1.254s16.674,4.3,17.291,2.084C414.99,145.885,405.646,112.226,402.49,110.908Z" transform="translate(-369.733 -87.722)" fill="#ea7b59"/>
        <path id="Path_785" data-name="Path 785" d="M401.067,117.106c.331-4.517-1.418-8.239-3.922-8.339-2.515-.121-4.82,3.462-5.162,7.961s1.4,8.25,3.915,8.36S400.715,121.605,401.067,117.106Z" transform="translate(-381.468 -93.215)" fill="#4f3131"/>
        <path id="Path_786" data-name="Path 786" d="M413.29,117.248c-5.311,5.026-22.994.367-23.835-3.131s-.9-6.975,3.27-8.14,22.018-2.9,23.938.061S415.738,114.925,413.29,117.248Z" transform="translate(-389 -104.399)" fill="#93402c"/>
        <path id="Path_787" data-name="Path 787" d="M399.687,117.153c2.137,6.059,16,5.122,17.693,1.856s2.821-6.7.267-8.709-14.53-7.413-16.81-4.891S398.7,114.364,399.687,117.153Z" transform="translate(-363.357 -103.499)" fill="#93402c"/>
        <path id="Path_788" data-name="Path 788" d="M397.875,136.14c-3.812-2.241-3.562-12.621-3.288-16.988l-1.852-.737s-1.6,15.812,3.031,18.619c5.04,3.046,19.546,7.431,23.539,5.557a9.325,9.325,0,0,0,.858-.52C414.19,142.385,402.414,138.8,397.875,136.14Z" transform="translate(-380.111 -68.488)" fill="#ea7b59"/>
        <path id="Path_789" data-name="Path 789" d="M402.978,128.071c.164-.848-1.493-1.867-3.7-2.276s-4.125-.053-4.289.794,1.5,1.867,3.7,2.276S402.818,128.919,402.978,128.071Z" transform="translate(-373.676 -50.014)" fill="#ea7b59"/>
      </g>
    </g>
  </g>
</svg>
