<svg xmlns="http://www.w3.org/2000/svg" width="856.448" height="744.151" viewBox="0 0 856.448 744.151">
  <g id="Group_109" data-name="Group 109" transform="translate(-731.203 -84.493)">
    <path id="Path_790" data-name="Path 790" d="M845.733,174.576c11.2-1.359,16.969-2.886,20.87-3.223s13.065,13.065,13.574,15.779-8.651,2.036-11.2,1.359-6.45-5.769-6.45-5.769-7.974,5.259-13.233,4.75S845.733,174.576,845.733,174.576Z" transform="translate(354.897 269.749)" fill="#ff9566"/>
    <path id="Path_791" data-name="Path 791" d="M848.254,174.576c11.2-1.359,16.969-2.886,20.87-3.223s13.064,13.065,13.574,15.779-8.651,2.036-11.2,1.359-6.45-5.769-6.45-5.769-7.974,5.259-13.233,4.75S848.254,174.576,848.254,174.576Z" transform="translate(362.727 269.749)" fill="#ffb882"/>
    <path id="Path_792" data-name="Path 792" d="M838.551,189.433c14.764,8.318,37.671,6.791,47.176-1.7s-9.164-14.76-23.756-16.629S838.551,189.433,838.551,189.433Z" transform="translate(333.401 268.634)" fill="#ffb882"/>
    <path id="Path_793" data-name="Path 793" d="M872.961,175.556a3.956,3.956,0,0,1,.9-2.053,85.222,85.222,0,0,0-11.894-2.394c-14.6-1.868-23.42,18.324-23.42,18.324,14.764,8.318,38.521,6.959,48.022-1.523C887.172,187.377,872.58,179.649,872.961,175.556Z" transform="translate(333.401 268.634)" fill="#ff9566"/>
    <path id="Path_794" data-name="Path 794" d="M863.628,174.576c11.2-1.359,16.969-2.886,20.87-3.223s13.069,13.065,13.578,15.779-8.655,2.036-11.2,1.359-6.45-5.769-6.45-5.769-7.973,5.259-13.233,4.75S863.628,174.576,863.628,174.576Z" transform="translate(410.476 269.749)" fill="#ff9566"/>
    <path id="Path_795" data-name="Path 795" d="M866.149,174.576c11.2-1.359,16.969-2.886,20.87-3.223s13.069,13.065,13.578,15.779-8.655,2.036-11.2,1.359-6.45-5.769-6.45-5.769-7.974,5.259-13.233,4.75S866.149,174.576,866.149,174.576Z" transform="translate(418.305 269.749)" fill="#ffb882"/>
    <path id="Path_796" data-name="Path 796" d="M818.348,201.175c38.508,17.918,96.975,18.883,96.975,18.883l17.027-22.348s-77.128-35.158-90.853-36.616S818.348,201.175,818.348,201.175Z" transform="translate(270.654 237.792)" fill="#663258"/>
    <path id="Path_797" data-name="Path 797" d="M870.668,144.679c-14.962-14.633-59.14-8.224-58.762,9.9,1.827,87.77,26.524,122.3,26.524,122.3l39.994-4.812S885.63,159.312,870.668,144.679Z" transform="translate(250.638 161.839)" fill="#663258"/>
    <g id="Group_100" data-name="Group 100" transform="translate(1147.518 456.203)">
      <path id="Path_798" data-name="Path 798" d="M1092.181,175.167H846.293c-15.237,0-19.355,53.293-4.118,53.293h245.888C1068.359,228.46,1072.477,175.167,1092.181,175.167Z" transform="translate(-832.6 -174.588)" fill="#bcb23c"/>
      <path id="Path_799" data-name="Path 799" d="M832.673,200.82c28.7,3.153,66.091,3.322,106.751-.25,51.918-4.566,97.541-14.2,125.978-25.4H846.066C838.639,175.167,833.86,187.837,832.673,200.82Z" transform="translate(-832.373 -174.588)" fill="#d8ca50"/>
      <path id="Path_800" data-name="Path 800" d="M1091.121,176.694H914.736c-31.212,0-34.362,40.754-3.149,40.754h176.385C1071.253,211.963,1069.34,183.161,1091.121,176.694Z" transform="translate(-655.282 -169.845)" fill="#eaddbe"/>
      <path id="Path_801" data-name="Path 801" d="M946.806,191.454l129.229,0c1.876-6.491,6.717-12.28,15.085-14.764H914.736c-31.212,0-34.362,40.754-3.149,40.754H922.2C919.659,205.784,928.3,191.454,946.806,191.454Z" transform="translate(-655.282 -169.845)" fill="#d8c59e"/>
      <path id="Path_802" data-name="Path 802" d="M1086.575,175.167H891.492l-.694,9.406h195.083a5.057,5.057,0,0,0,4.882-4.705h0A4.233,4.233,0,0,0,1086.575,175.167Z" transform="translate(-651.849 -174.588)" fill="#9e932a"/>
      <path id="Path_803" data-name="Path 803" d="M1085.786,185.857H890.7l-.7,9.4h195.083a5.06,5.06,0,0,0,4.886-4.7h0A4.231,4.231,0,0,0,1085.786,185.857Z" transform="translate(-654.312 -141.387)" fill="#9e932a"/>
      <path id="Path_804" data-name="Path 804" d="M921.518,175.167H898.657c-12.634,9.23-15.221,44.063-3.958,53.293h22.7C897.7,228.46,901.814,175.167,921.518,175.167Z" transform="translate(-661.937 -174.588)" fill="#9e932a"/>
      <path id="Path_805" data-name="Path 805" d="M862.2,175.026c-3.392,11.2,1.7,17.987,17.478,17.987s20.533-17.478,20.533-17.478Z" transform="translate(-743.764 -175.026)" fill="#bcb23c"/>
    </g>
    <g id="Group_101" data-name="Group 101" transform="translate(1057.789 508.451)">
      <path id="Path_806" data-name="Path 806" d="M1104.612,189.386H908.791c-34.653,0-44.614,135.61-9.961,135.61h195.822C1076.964,306.742,1079.407,210.9,1104.612,189.386Z" transform="translate(-604.07 -182.674)" fill="#eaddbe"/>
      <path id="Path_807" data-name="Path 807" d="M966.313,221.21h122.534c3.543-14.161,8.778-25.858,15.766-31.824H908.791c-34.653,0-44.614,135.61-9.961,135.61h37.046C931.077,283.536,943.181,221.21,966.313,221.21Z" transform="translate(-604.07 -182.674)" fill="#d8c59e"/>
      <path id="Path_808" data-name="Path 808" d="M1127.517,187.775H854.53c-54.229-2.18-60.207,146.811-5.978,148.987h272.987C1075.044,334.9,1081.027,185.907,1127.517,187.775Z" transform="translate(-810.746 -187.751)" fill="#ffb94a"/>
      <path id="Path_809" data-name="Path 809" d="M854.506,187.775c-30.026-1.207-45.225,43.924-43.64,84.822,35.917,7.276,91.637,4.574,152.161-9.411,59.538-13.754,110.118-35.285,139.437-57.2,4.874-8.942,11.09-15.224,18.571-17.351.23-.287.448-.571.665-.858Z" transform="translate(-810.722 -187.751)" fill="#ffce61"/>
      <path id="Path_810" data-name="Path 810" d="M1099.093,187.757H881.707l-1.958,14.12h217.385c2.9,0,5.687-3.161,6.229-7.062h0C1103.9,190.918,1102,187.757,1099.093,187.757Z" transform="translate(-596.436 -187.733)" fill="#efa02e"/>
      <path id="Path_811" data-name="Path 811" d="M1097.428,221.058H880.868l-2.1,12.26H1095.33c2.9,0,5.719-2.743,6.3-6.13h0C1102.212,223.8,1100.331,221.058,1097.428,221.058Z" transform="translate(-599.477 -84.307)" fill="#efa02e"/>
      <path id="Path_812" data-name="Path 812" d="M932.043,187.77h-36.78c-26.437,27.086-29.471,121.889-4.155,148.987h34.957C879.57,334.893,885.553,185.9,932.043,187.77Z" transform="translate(-615.272 -187.747)" fill="#efa02e"/>
      <path id="Path_813" data-name="Path 813" d="M1017.5,191.054H853.591c-44.421-1.786-49.319,120.251-4.9,122.033h165.39C987.912,290.188,990.507,213.845,1017.5,191.054ZM997.515,302.608H860.525c-36.792-1.478-32.735-102.559,4.057-101.081h135.77C977.988,220.406,975.841,283.643,997.515,302.608Z" transform="translate(-789.072 -177.555)" fill="#fff7e6" opacity="0.64" style="mix-blend-mode: overlay;isolation: isolate"/>
      <path id="Path_814" data-name="Path 814" d="M1037.685,208.576c0-.7-33.5-1.273-74.832-1.273s-74.832.571-74.832,1.273,33.5,1.273,74.832,1.273S1037.685,209.278,1037.685,208.576Z" transform="translate(-570.745 -127.027)" fill="#d8c59e"/>
      <ellipse id="Ellipse_5" data-name="Ellipse 5" cx="74.831" cy="1.273" rx="74.831" ry="1.273" transform="translate(316.768 55.333)" fill="#d8c59e"/>
      <path id="Path_815" data-name="Path 815" d="M1010.077,216.883c0-.7-28.49-1.273-63.631-1.273s-63.632.571-63.632,1.273,28.49,1.273,63.632,1.273S1010.077,217.585,1010.077,216.883Z" transform="translate(-586.917 -101.228)" fill="#d8c59e"/>
    </g>
    <g id="Group_103" data-name="Group 103" transform="translate(949.266 655.137)">
      <path id="Path_816" data-name="Path 816" d="M1145.426,223.478H821.61c-20.069,0-50.834,98.97-30.769,98.97l323.816,0C1088.708,322.452,1119.477,223.478,1145.426,223.478Z" transform="translate(-784.314 -223.478)" fill="#965cbf"/>
      <path id="Path_817" data-name="Path 817" d="M786.333,268.56c30.88,12.543,87.922,16.809,152,9.308,75.222-8.8,137.257-31.142,157.31-54.39H815.34C805.9,223.478,794.1,245.37,786.333,268.56Z" transform="translate(-778.045 -223.478)" fill="#a871d8"/>
      <path id="Path_818" data-name="Path 818" d="M1137.821,226.314H905.536c-41.107,0-64.633,75.686-23.53,75.686h232.286C1094.883,291.81,1106.063,238.323,1137.821,226.314Z" transform="translate(-547.573 -214.67)" fill="#eaddbe"/>
      <path id="Path_819" data-name="Path 819" d="M964.585,248.884h148.8c5.641-10.022,13.9-18.583,24.438-22.57H905.536c-41.107,0-64.633,75.686-23.53,75.686h47.849C905.363,292.446,927.982,248.884,964.585,248.884Z" transform="translate(-547.573 -214.67)" fill="#d8c59e"/>
      <path id="Path_820" data-name="Path 820" d="M1126.781,223.479H869.77l-5.21,17.462,257.01,0c3.3,0,7.144-3.913,8.585-8.737h0C1131.593,227.388,1130.082,223.479,1126.781,223.479Z" transform="translate(-535.087 -223.475)" fill="#73419e"/>
      <path id="Path_821" data-name="Path 821" d="M1120.862,243.33H863.847l-5.21,17.466h257.01c3.3,0,7.144-3.913,8.585-8.733h0C1125.67,247.239,1124.163,243.33,1120.862,243.33Z" transform="translate(-553.483 -161.822)" fill="#73419e"/>
      <path id="Path_822" data-name="Path 822" d="M934.714,223.478H897.766c-28.018,14.157-55.3,84.813-38.217,98.974h36.944C864.263,322.452,902.48,223.478,934.714,223.478Z" transform="translate(-567.115 -223.478)" fill="#73419e"/>
      <g id="Group_102" data-name="Group 102" transform="translate(26.514 11.476)" style="mix-blend-mode: overlay;isolation: isolate">
        <path id="Path_823" data-name="Path 823" d="M1026.51,302.3H798.294a6.508,6.508,0,0,1-6.04-3.646,16.834,16.834,0,0,1-1.482-7.764c0-18.751,17.93-64.613,33.589-64.613H1054.52l-3.5,2.96c-14.522,12.272-31.274,58.52-25.612,70.694ZM824.361,229.722c-11.02,0-29.6,41.694-29.6,61.164a14.191,14.191,0,0,0,1.121,6.327,2.52,2.52,0,0,0,2.414,1.634H1020.91c-3.543-14.97,10.109-53.605,24.278-69.125Z" transform="translate(-790.772 -226.273)" fill="#eaddbe"/>
      </g>
      <path id="Path_824" data-name="Path 824" d="M1057.754,240.322c0,.846-43.074,1.527-96.211,1.527s-96.211-.682-96.211-1.527,43.074-1.527,96.211-1.527S1057.754,239.481,1057.754,240.322Z" transform="translate(-532.69 -175.906)" fill="#d8c59e"/>
      <path id="Path_825" data-name="Path 825" d="M1073.015,235.363c0,.842-46.379,1.527-103.593,1.527s-103.594-.686-103.594-1.527,46.379-1.527,103.594-1.527S1073.015,234.522,1073.015,235.363Z" transform="translate(-531.149 -191.308)" fill="#d8c59e"/>
    </g>
    <g id="Group_104" data-name="Group 104" transform="translate(731.203 748.902)">
      <path id="Path_826" data-name="Path 826" d="M1226.1,246.315H747.908c-29.635,0-16.464,79.743,13.167,79.743H1239.27C1200.95,326.058,1187.783,246.315,1226.1,246.315Z" transform="translate(-731.203 -246.315)" fill="#ea2856"/>
      <path id="Path_827" data-name="Path 827" d="M936.2,296.578c116.535-8.019,217.053-27.792,268.133-50.263H747.9c-17.187,0-19.958,26.815-13.487,49.352C788.984,301.127,859.481,301.858,936.2,296.578Z" transform="translate(-731.192 -246.315)" fill="#ff4569"/>
      <path id="Path_828" data-name="Path 828" d="M1226.178,248.6H883.151c-60.7,0-50.633,60.979,10.072,60.979h343.023C1201.551,301.368,1186.388,258.273,1226.178,248.6Z" transform="translate(-386.01 -239.218)" fill="#eaddbe"/>
      <path id="Path_829" data-name="Path 829" d="M951.023,275.748h251.624c-1.125-11.669,5.621-22.8,23.531-27.148H883.151c-60.7,0-50.633,60.979,10.072,60.979h18.131C906.283,293.3,918.452,275.748,951.023,275.748Z" transform="translate(-386.01 -239.218)" fill="#d8c59e"/>
      <path id="Path_830" data-name="Path 830" d="M1216.507,246.315H844.255l2.184,14.071H1218.7c4.779,0,8.167-3.149,7.563-7.033h0C1225.655,249.464,1221.286,246.315,1216.507,246.315Z" transform="translate(-380.087 -246.315)" fill="#b7204b"/>
      <path id="Path_831" data-name="Path 831" d="M1218.993,262.309H846.741l2.188,14.075h372.252c4.779,0,8.166-3.153,7.563-7.037h0C1228.141,265.462,1223.772,262.309,1218.993,262.309Z" transform="translate(-372.366 -196.641)" fill="#b7204b"/>
      <path id="Path_832" data-name="Path 832" d="M892.124,246.315h-39.74c-23.756,12.363-14.67,67.376,13.167,79.743h39.74C866.972,326.058,853.8,246.315,892.124,246.315Z" transform="translate(-397.225 -246.315)" fill="#b7204b"/>
      <path id="Path_833" data-name="Path 833" d="M995.946,248.008H755.786c-24.467,0-13.594,65.837,10.872,65.837h240.161C987.328,305.629,979.17,256.228,995.946,248.008Z" transform="translate(-697.69 -241.057)" fill="#fefff4" opacity="0.82" style="mix-blend-mode: overlay;isolation: isolate"/>
      <path id="Path_834" data-name="Path 834" d="M865.491,248.008H826.54c-24.466,0-13.594,65.837,10.868,65.837h38.956C859.468,301.86,852.558,260,865.491,248.008Z" transform="translate(-477.942 -241.057)" fill="#fefff4" opacity="0.82" style="mix-blend-mode: overlay;isolation: isolate"/>
      <path id="Path_835" data-name="Path 835" d="M1130.9,258.775c0,.846-61.858,1.527-138.164,1.527s-138.169-.682-138.169-1.527,61.858-1.527,138.169-1.527S1130.9,257.934,1130.9,258.775Z" transform="translate(-348.064 -212.359)" fill="#d8c59e"/>
      <path id="Path_836" data-name="Path 836" d="M1129.782,261.131c0,.846-61.858,1.527-138.164,1.527s-138.168-.682-138.168-1.527,61.858-1.527,138.168-1.527S1129.782,260.29,1129.782,261.131Z" transform="translate(-351.53 -205.042)" fill="#d8c59e"/>
    </g>
    <path id="Path_837" data-name="Path 837" d="M790.914,239.636l128.733,22.71L989.557,387.5h3.315L954.1,225.21l-91.062-36.966L840.5,169.311Z" transform="translate(185.45 263.428)" fill="#683647"/>
    <path id="Path_838" data-name="Path 838" d="M918.642,242.766l71.2,121.655-62.82-140.158-99.605-17.138-4.456-30.852-32.4,47.383Z" transform="translate(184.354 285.051)" fill="#4f2935"/>
    <path id="Path_839" data-name="Path 839" d="M889.252,186.638,859.5,323.681,749.091,454.424l1.8,2.7L906.382,343.516l52.462-107.657,27.744-16.8,11.758-48.651Z" transform="translate(55.556 266.838)" fill="#6d3e4c"/>
    <path id="Path_840" data-name="Path 840" d="M940.353,195.464l12.387,7.805L892.331,305.08,749.117,418.889l1.7,2.595L908.393,308.837l52.152-103.2,28.679-23.756Q963.887,200.153,940.353,195.464Z" transform="translate(55.636 302.483)" fill="#4f2935"/>
    <path id="Path_841" data-name="Path 841" d="M781.046,227.915c33.1,4.521,90.516-22.853,118-40.927l-2.291-2.036,2.34-14.543L790,186.639Z" transform="translate(154.802 266.838)" fill="#4f2935"/>
    <path id="Path_842" data-name="Path 842" d="M786.867,328.687C809.855,335,896.783,296.912,902.72,292.174c5.781-4.615-2.254-29.755,36.964-50.493s45.985-58.6,28.4-94.667-108.643,15.327-136.144,69.425c0,0-23.44,18.033-47.332,79.34C775.026,320.373,781.644,327.254,786.867,328.687Z" transform="translate(150.73 156.795)" fill="#995882"/>
    <path id="Path_843" data-name="Path 843" d="M913.429,179.918a154.048,154.048,0,0,1-41.6,11.644c7.435,25.784-10.708,63.168-45.669,89.86a137.457,137.457,0,0,1-42.9,22.438c30.116-.723,103.093-32.859,108.517-37.186,5.781-4.615-2.254-29.755,36.964-50.493,31.385-16.592,41.937-44.162,35.913-72.993C952.747,157.374,935.03,170.516,913.429,179.918Z" transform="translate(161.675 182.295)" fill="#773d65"/>
    <path id="Path_844" data-name="Path 844" d="M820.613,176.775c11.139-13.122,24.376-40.434,28.191-54.566l26.585,33.507L842.333,219.73Z" transform="translate(277.689 117.138)" fill="#ffb882"/>
    <path id="Path_845" data-name="Path 845" d="M829.763,133.842l-10.987,5.67S842.2,175.7,857.2,180.644l1.392-17.294Z" transform="translate(271.983 153.268)" fill="#995882"/>
    <g id="Group_106" data-name="Group 106" transform="translate(1312.688 84.493)">
      <g id="Group_105" data-name="Group 105">
        <path id="Path_846" data-name="Path 846" d="M940.063,150.124h-42.17l40.568,99.2h51.9Z" transform="translate(-794.985 119.344)" fill="#bc9e7d"/>
        <rect id="Rectangle_22" data-name="Rectangle 22" width="229.501" height="307.962" rx="7.021" transform="translate(27.049 0.001)" fill="#dbc1a2"/>
        <path id="Path_847" data-name="Path 847" d="M1108.918,342.128V109.288a24.793,24.793,0,0,0-24.791-24.795H904.211a24.8,24.8,0,0,0-24.795,24.795v232.84Z" transform="translate(-852.369 -84.493)" fill="#2d2222"/>
        <path id="Path_848" data-name="Path 848" d="M937.811,150.124h-42.17l40.568,99.2h51.9Z" transform="translate(-801.976 119.344)" fill="#dbc1a2"/>
        <path id="Path_849" data-name="Path 849" d="M971.927,214.326l-34.116-64.2h-42.17l28.129,68.784Z" transform="translate(-801.976 119.344)" fill="#bc9e7d"/>
        <rect id="Rectangle_23" data-name="Rectangle 23" width="229.502" height="307.962" rx="7.021" transform="translate(0 0.001)" fill="#eaddbe"/>
        <path id="Path_850" data-name="Path 850" d="M881.2,392.456h99.05l54.447-307.963H960.941Z" transform="translate(-846.842 -84.493)" fill="#f4e8d0"/>
        <path id="Path_851" data-name="Path 851" d="M1100.61,86.9a35.767,35.767,0,0,1,.44,5.613V359.757c0,11.242-4.993,20.357-11.147,20.357h-204.5c-6.159,0-11.151-9.115-11.151-20.357V92.511a36.319,36.319,0,0,1,.439-5.613,33.339,33.339,0,0,0-1.79,11.04V365.185c0,11.242,4.992,20.357,11.147,20.357h207.2c6.159,0,11.151-9.115,11.151-20.357V97.938A33.326,33.326,0,0,0,1100.61,86.9Z" transform="translate(-872.597 -77.024)" fill="#f2e6cc"/>
        <path id="Path_852" data-name="Path 852" d="M958.674,172.6h-51.1v9.87h55.6Z" transform="translate(-764.905 189.156)" fill="#eaddbe"/>
        <rect id="Rectangle_24" data-name="Rectangle 24" width="57.308" height="9.87" transform="translate(86.097 361.759)" fill="#f4e8d0"/>
        <path id="Path_853" data-name="Path 853" d="M1092.781,84.493H884.058c-6.2,0-11.229,9.115-11.229,20.361V342.115h231.185V104.854C1104.014,93.608,1098.984,84.493,1092.781,84.493Z" transform="translate(-872.827 -84.493)" fill="#3f3131"/>
        <path id="Path_854" data-name="Path 854" d="M979.285,342.116l45.547-257.623H951.08L884.37,342.116Z" transform="translate(-836.982 -84.493)" fill="#493a3a"/>
        <path id="Path_855" data-name="Path 855" d="M882.988,92.388h209.149c4.483,0,8.343,4.75,10.153,11.607-.25-10.843-5.128-19.5-11.127-19.5h-207.2c-6,0-10.876,8.659-11.127,19.5C874.645,97.139,878.5,92.388,882.988,92.388Z" transform="translate(-872.811 -84.493)" fill="#5b4a4a"/>
        <rect id="Rectangle_25" data-name="Rectangle 25" width="211.255" height="239.856" transform="translate(9.124 17.767)" fill="#56b1d1"/>
        <rect id="Rectangle_26" data-name="Rectangle 26" width="205.884" height="232.066" transform="translate(11.809 21.663)" fill="#8edbed"/>
        <path id="Path_856" data-name="Path 856" d="M1022.563,89.769H929.3L883.889,321.835h93.26Z" transform="translate(-838.475 -68.106)" fill="#a5edf9"/>
        <rect id="Rectangle_27" data-name="Rectangle 27" width="39.535" height="4.812" rx="0.514" transform="translate(94.984 283.904)" fill="#dbc1a2"/>
      </g>
      <rect id="Rectangle_28" data-name="Rectangle 28" width="194.58" height="174.423" transform="translate(13.898 55.77)" fill="#f4e8d0"/>
      <rect id="Rectangle_29" data-name="Rectangle 29" width="178.867" height="115.183" transform="translate(19.209 84.367)" fill="#564242"/>
    </g>
    <path id="Path_858" data-name="Path 858" d="M770.4,270.309H753.771l-7.464-27.488s12.9-9.164,15.61-.682-2.377,20.7-2.377,20.7Z" transform="translate(46.909 478.432)" fill="#f2e9ce"/>
    <path id="Path_859" data-name="Path 859" d="M869.21,231.477H838.922s-1.527-8.906,3.055-10.433S869.21,231.477,869.21,231.477Z" transform="translate(333.793 423.681)" fill="#f2e9ce"/>
    <path id="Path_860" data-name="Path 860" d="M804.658,151.056c18.324,28.507,22.4,64.141,22.4,64.141L801.6,167Z" transform="translate(218.65 206.731)" fill="#995882"/>
    <path id="Path_861" data-name="Path 861" d="M881.908,151.783l-23.465-29.574c-3.317,12.293-13.767,34.55-23.76,48.773l-.985-1.01-9.468,4.886a62.215,62.215,0,0,0-6.721.965c7.661,4.755,22.643,6.779,29.381,17.314,9.353,14.613,6.348,40.044,15.59,48.65-.267-8.877-.755-17.482-1.573-25.115.074.029.156.078.23.1l1.392-17.294-.061-.066,21.412-41.473Q882.937,154.788,881.908,151.783Z" transform="translate(268.048 117.138)" fill="#c94343" opacity="0.6" style="mix-blend-mode: multiply;isolation: isolate"/>
    <path id="Path_862" data-name="Path 862" d="M812.011,185.367c61.115,63.3,106.837,71.679,106.837,71.679l32.908-31.105s-69.873-87.905-93.313-88.357S799.386,172.294,812.011,185.367Z" transform="translate(242.793 164.874)" fill="#995882"/>
    <path id="Path_863" data-name="Path 863" d="M809.561,148.517a9.256,9.256,0,0,0,1.844,2.919c59.8,63.981,105.1,72.845,105.1,72.845l14.432-13.254C911.13,206.84,866.878,193.081,809.561,148.517Z" transform="translate(243.363 198.846)" fill="#773d65"/>
    <path id="Path_864" data-name="Path 864" d="M856.446,189.433c14.764,8.318,37.671,6.791,47.176-1.7s-9.164-14.76-23.756-16.629S856.446,189.433,856.446,189.433Z" transform="translate(388.979 268.634)" fill="#ffb882"/>
    <path id="Path_865" data-name="Path 865" d="M890.861,175.556a3.921,3.921,0,0,1,.9-2.053,85.114,85.114,0,0,0-11.894-2.394c-14.592-1.868-23.419,18.324-23.419,18.324,14.764,8.318,38.521,6.959,48.022-1.523C905.067,187.377,890.475,179.649,890.861,175.556Z" transform="translate(388.979 268.634)" fill="#ff9566"/>
    <path id="Path_866" data-name="Path 866" d="M832.527,189.309c36.061,28.4,99.176,46.432,99.176,46.432l32.206-21s-79.09-51.581-93.514-56.993S832.527,189.309,832.527,189.309Z" transform="translate(314.691 225.849)" fill="#995882"/>
    <path id="Path_867" data-name="Path 867" d="M841.463,162.666c-7.912,3.235-9.608,9.681-9.608,9.681,36.065,28.4,101.931,46.453,101.931,46.453l12.268-7.932C927.948,204.771,876.305,187.806,841.463,162.666Z" transform="translate(312.607 242.79)" fill="#773d65"/>
    <g id="Group_108" data-name="Group 108" transform="translate(1096.139 150.524)">
      <path id="Path_868" data-name="Path 868" d="M845.341,119.988c3.162-1.856,12.379,32.415,11.11,36.767-.624,2.164-16.222-.608-16.222-.608S844.762,120.312,845.341,119.988Z" transform="translate(-757.527 -40.51)" fill="#ffb882"/>
      <path id="Path_869" data-name="Path 869" d="M845.774,120.18c3.2,6.984,10.235,31.508,9.139,35.125-.492,1.642-10.24.333-14.263-.378-.086.768-.152,1.211-.152,1.211s16.538,3.617,17.109,1.466C858.7,153.453,848.915,121.346,845.774,120.18Z" transform="translate(-756.691 -39.688)" fill="#ea7b59"/>
      <path id="Path_870" data-name="Path 870" d="M833.573,228.527c-18.8-38.82-5.588-66.469-5.588-66.469s-16.35-13.414-2-33.179,41.629-23.764,53.01-17.216c0,0,28.618-18.468,43.879-7.735s2.451,25.411,2.451,25.411,12.157,9.727,8.462,23.764-27.053,13.118-27.053,13.118Z" transform="translate(-820.086 -100.575)" fill="#93402c"/>
      <path id="Path_871" data-name="Path 871" d="M906.274,151.8c-37.445-2.722-66.506-18.94-64.913-36.221.415-4.488,2.891-8.593,6.931-12.182a48.853,48.853,0,0,0-22.311,16.731c-14.345,19.765,2,33.179,2,33.179s-13.213,27.648,5.588,66.469l73.158-62.305s14.087.521,22.105-5.826A140.6,140.6,0,0,1,906.274,151.8Z" transform="translate(-820.086 -91.822)" fill="#723125"/>
      <path id="Path_872" data-name="Path 872" d="M842.487,129.095c-8.581,16.583-11.225,59.021-12.666,64.995-1.835,7.6-.706,20.188,8.647,25.423,22.015,12.317,34.275,5.317,36.164,0,11.27-31.713,10.938-88.266,9.275-93.329s-21.067-17.138-31.508-16.6S845.078,124.082,842.487,129.095Z" transform="translate(-792.147 -72.65)" fill="#ffb882"/>
      <path id="Path_873" data-name="Path 873" d="M858.187,107.858c39.994,4.8,5.091,91.7,5.091,91.7l-39.219,2.11S818.246,103.063,858.187,107.858Z" transform="translate(-808.664 -78.483)" fill="#723125"/>
      <path id="Path_874" data-name="Path 874" d="M848.539,126.648c-3.674-10.585-22.738-4.488-19.6,5.9s8.766,30.679,15.356,26.294S850.818,133.213,848.539,126.648Z" transform="translate(-793.674 -36.762)" fill="#ffb882"/>
      <path id="Path_875" data-name="Path 875" d="M840.839,126.277c-2.033-5.859-12.585-2.484-10.852,3.26s4.845,16.977,8.495,14.547S842.1,129.906,840.839,126.277Z" transform="translate(-789.928 -30.252)" fill="#db5b3e"/>
      <path id="Path_876" data-name="Path 876" d="M838.659,127.795c-1.462-4.217-9.065-1.786-7.817,2.349s3.486,12.223,6.114,10.474S839.566,130.41,838.659,127.795Z" transform="translate(-787.111 -22.873)" fill="#ffb882"/>
      <g id="Group_107" data-name="Group 107" transform="translate(68.079 64.003)">
        <path id="Path_877" data-name="Path 877" d="M846.26,128.406c.575-4.393-.5-8-2.406-8.084s-3.929,3.4-4.5,7.776.492,8.01,2.4,8.1S845.677,132.783,846.26,128.406Z" transform="translate(-828.833 -103.258)" fill="#4f3131"/>
        <path id="Path_878" data-name="Path 878" d="M860.887,119.535c-1.306-2.743-15.54-3.7-18.924-3.276s-3.588,3.334-3.173,6.38,14.062,9.337,18.624,5.838C859.512,126.864,862.193,122.278,860.887,119.535Z" transform="translate(-830.564 -116.164)" fill="#93402c"/>
        <path id="Path_879" data-name="Path 879" d="M838.919,140.726c-1.885-2.357,1.868-9.534,3.568-12.519l-1.039-.9s-6.569,10.679-4.307,13.607c2.463,3.178,11.077,9.279,14.51,8.815.242-.033.517-.119.78-.181C848.153,148.506,841.169,143.538,838.919,140.726Z" transform="translate(-836.668 -81.565)" fill="#ea7b59"/>
        <path id="Path_880" data-name="Path 880" d="M842.211,135.232c.406-.558-.4-1.614-1.794-2.361s-2.862-.907-3.268-.349.4,1.614,1.8,2.365S841.808,135.79,842.211,135.232Z" transform="translate(-835.496 -66.398)" fill="#ea7b59"/>
      </g>
    </g>
  </g>
</svg>
